if (_typeface_js && _typeface_js.loadFace) _typeface_js.loadFace({"glyphs":{"¦":{"x_min":297,"x_max":399,"ha":694,"o":"m 399 277 l 399 -237 l 297 -237 l 297 277 l 399 277 m 399 971 l 399 457 l 297 457 l 297 971 l 399 971 "},"Ž":{"x_min":39,"x_max":807,"ha":831,"o":"m 39 0 l 39 112 l 649 880 l 79 880 l 79 999 l 807 999 l 807 873 l 208 122 l 807 122 l 807 0 l 39 0 m 215 1322 l 297 1322 l 415 1167 l 531 1322 l 615 1322 l 481 1086 l 348 1086 l 215 1322 "},"Á":{"x_min":-4,"x_max":889,"ha":885,"o":"m 284 415 l 596 415 l 441 855 l 284 415 m -4 0 l 366 999 l 516 999 l 889 0 l 741 0 l 636 298 l 242 298 l 136 0 l -4 0 m 346 1086 l 484 1322 l 621 1322 l 427 1086 l 346 1086 "},"Î":{"x_min":-21,"x_max":379,"ha":357,"o":"m 110 0 l 110 999 l 246 999 l 246 0 l 110 0 m -21 1086 l 112 1322 l 245 1322 l 379 1086 l 295 1086 l 179 1239 l 61 1086 l -21 1086 "},"e":{"x_min":58,"x_max":712,"ha":760,"o":"m 185 429 l 584 429 q 532 585 583 530 q 387 641 481 641 q 245 586 297 641 q 185 429 193 532 m 581 234 l 702 234 q 597 45 682 114 q 384 -24 512 -24 q 145 77 232 -24 q 58 355 58 179 q 144 645 58 541 q 383 750 231 750 q 626 653 540 750 q 712 381 712 557 q 711 348 712 358 q 710 327 711 337 l 185 327 q 242 149 187 212 q 395 87 297 87 q 518 125 469 87 q 581 234 566 163 "},"»":{"x_min":65,"x_max":563,"ha":616,"o":"m 343 135 l 343 254 l 488 367 l 343 479 l 343 599 l 563 434 l 563 299 l 343 135 m 65 135 l 65 254 l 210 367 l 65 479 l 65 599 l 285 434 l 285 299 l 65 135 "},"∆":{"x_min":-4,"x_max":933,"ha":929,"o":"m 463 855 l 180 121 l 747 121 l 463 855 m 388 999 l 540 999 l 933 0 l -4 0 l 388 999 "},"ò":{"x_min":56,"x_max":752,"ha":807,"o":"m 181 364 q 239 158 181 229 q 404 87 297 87 q 569 158 512 87 q 626 364 626 229 q 569 569 626 498 q 404 641 512 641 q 238 569 296 641 q 181 364 181 498 m 56 364 q 147 648 56 546 q 403 750 238 750 q 660 648 568 750 q 752 364 752 547 q 660 79 752 181 q 404 -22 569 -22 q 147 79 239 -22 q 56 364 56 180 m 502 825 l 420 825 l 227 1061 l 363 1061 l 502 825 "},"^":{"x_min":285,"x_max":1103,"ha":1389,"o":"m 757 989 l 1103 611 l 980 611 l 694 896 l 407 611 l 285 611 l 630 989 l 757 989 "},"«":{"x_min":54,"x_max":551,"ha":616,"o":"m 551 599 l 551 480 l 406 367 l 551 254 l 551 135 l 331 299 l 331 434 l 551 599 m 274 599 l 274 480 l 128 367 l 274 254 l 274 135 l 54 299 l 54 434 l 274 599 "},"∙":{"x_min":107,"x_max":275,"ha":380,"o":"m 107 475 q 131 534 107 510 q 190 559 155 559 q 250 534 225 559 q 275 475 275 510 q 250 417 275 441 q 190 393 225 393 q 131 417 155 393 q 107 475 107 441 "},"í":{"x_min":57,"x_max":332,"ha":309,"o":"m 93 0 l 93 726 l 215 726 l 215 0 l 93 0 m 57 825 l 195 1061 l 332 1061 l 138 825 l 57 825 "},"ˆ":{"x_min":147,"x_max":547,"ha":694,"o":"m 147 825 l 280 1061 l 413 1061 l 547 825 l 463 825 l 347 978 l 229 825 l 147 825 "},"µ":{"x_min":-77,"x_max":723,"ha":781,"o":"m 260 726 l 173 318 q 166 274 168 297 q 163 228 163 252 q 199 124 163 161 q 299 88 234 88 q 440 150 388 88 q 524 362 492 213 l 602 726 l 723 726 l 617 229 q 614 215 616 225 q 602 139 602 156 q 613 103 602 114 q 651 93 624 93 q 663 93 659 93 q 672 94 668 94 l 651 -1 q 617 -6 635 -5 q 578 -8 600 -8 q 512 10 535 -8 q 477 78 489 30 q 401 11 447 33 q 294 -10 355 -10 q 197 8 238 -10 q 120 68 155 27 l 46 -290 l -77 -290 l 138 726 l 260 726 "},"č":{"x_min":56,"x_max":698,"ha":729,"o":"m 576 485 q 521 599 570 559 q 389 640 473 640 q 236 568 290 640 q 182 365 182 497 q 233 160 182 232 q 380 89 285 89 q 517 133 466 89 q 581 261 568 177 l 698 261 q 603 52 688 127 q 375 -22 518 -22 q 141 80 226 -22 q 56 360 56 182 q 144 646 56 543 q 389 750 233 750 q 609 678 526 750 q 697 485 691 607 l 576 485 m 186 1061 l 268 1061 l 386 906 l 502 1061 l 586 1061 l 452 825 l 319 825 l 186 1061 "},"’":{"x_min":107,"x_max":241,"ha":349,"o":"m 107 860 l 107 999 l 241 999 l 241 838 q 206 720 241 766 q 107 661 171 674 l 107 723 q 156 756 138 727 q 175 830 175 785 l 175 860 l 107 860 "},"-":{"x_min":49,"x_max":385,"ha":433,"o":"m 49 313 l 49 423 l 385 423 l 385 313 l 49 313 "},"Q":{"x_min":64,"x_max":1010,"ha":1074,"o":"m 683 121 l 574 213 l 640 298 l 774 188 q 845 319 821 239 q 870 498 870 398 q 782 799 870 691 q 538 907 694 907 q 292 799 381 907 q 204 498 204 691 q 292 198 204 306 q 538 90 381 90 q 615 97 579 90 q 683 121 651 105 m 793 35 q 671 -12 734 3 q 538 -28 608 -28 q 189 111 315 -28 q 64 498 64 250 q 189 885 64 746 q 538 1025 315 1025 q 884 884 758 1025 q 1010 498 1010 744 q 978 280 1010 377 q 880 105 946 183 l 1000 5 l 933 -80 l 793 35 "},"M":{"x_min":107,"x_max":1046,"ha":1153,"o":"m 232 851 l 232 0 l 107 0 l 107 999 l 301 999 l 548 234 q 564 184 559 202 q 572 152 569 166 q 582 197 577 177 q 594 234 588 217 l 850 999 l 1046 999 l 1046 0 l 914 0 l 914 851 q 903 807 909 829 q 890 763 897 785 l 633 0 l 505 0 l 254 763 q 242 804 247 782 q 232 851 236 826 "},"œ":{"x_min":56,"x_max":1245,"ha":1291,"o":"m 185 363 q 238 158 185 230 q 388 85 292 85 q 539 164 483 85 q 595 379 595 243 q 540 570 595 500 q 395 641 486 641 q 239 568 294 641 q 185 363 185 495 m 717 429 l 1114 429 l 1114 433 q 1061 585 1114 529 q 918 641 1009 641 q 777 583 832 641 q 717 429 723 525 m 645 123 q 540 12 605 49 q 386 -24 476 -24 q 143 76 230 -24 q 56 352 56 176 q 144 646 56 542 q 393 750 232 750 q 549 715 483 750 q 656 611 614 681 q 771 715 705 680 q 918 750 837 750 q 1158 652 1071 750 q 1245 383 1245 555 q 1242 333 1245 368 q 1242 329 1242 330 l 715 329 q 773 151 717 215 q 925 87 829 87 q 1047 125 998 87 q 1110 235 1095 164 l 1231 235 q 1125 45 1210 115 q 915 -24 1041 -24 q 752 13 822 -24 q 645 123 683 51 "},"{":{"x_min":114,"x_max":588,"ha":694,"o":"m 588 900 l 560 900 q 450 869 478 900 q 423 745 423 839 l 423 581 q 392 426 423 472 q 286 359 362 380 q 393 294 363 341 q 423 139 423 248 l 423 -24 q 451 -148 423 -119 q 561 -178 479 -178 l 588 -178 l 588 -280 l 558 -280 q 443 -272 485 -280 q 373 -246 402 -264 q 321 -180 336 -223 q 306 -36 306 -137 l 306 128 q 269 270 306 229 q 143 311 232 311 q 128 310 138 311 q 114 310 118 310 l 114 412 q 129 411 119 412 q 144 410 139 410 q 269 451 232 410 q 306 592 306 492 l 306 758 q 321 901 306 858 q 373 966 336 943 q 447 993 404 985 q 562 1002 490 1002 l 588 1002 l 588 900 "},"¼":{"x_min":82,"x_max":1165,"ha":1192,"o":"m 807 196 l 1000 196 l 1000 437 l 807 196 m 1000 0 l 1000 134 l 734 134 l 734 203 l 1000 528 l 1079 528 l 1079 196 l 1165 196 l 1165 134 l 1079 134 l 1079 0 l 1000 0 m 249 -28 l 858 971 l 943 971 l 333 -28 l 249 -28 m 224 415 l 224 800 l 82 800 l 82 854 q 198 880 159 855 q 244 958 237 905 l 305 958 l 305 415 l 224 415 "},"#":{"x_min":60,"x_max":1009,"ha":1068,"o":"m 657 582 l 481 582 l 418 402 l 595 402 l 657 582 m 627 989 l 517 682 l 690 682 l 802 989 l 913 989 l 804 682 l 1009 682 l 974 582 l 768 582 l 705 404 l 924 404 l 889 304 l 671 304 l 561 -3 l 449 -3 l 558 304 l 383 304 l 273 -3 l 161 -3 l 269 304 l 60 304 l 95 404 l 306 404 l 368 582 l 144 582 l 179 682 l 404 682 l 514 989 l 627 989 "},"Ê":{"x_min":107,"x_max":831,"ha":888,"o":"m 107 0 l 107 999 l 819 999 l 819 875 l 241 875 l 241 577 l 775 577 l 775 460 l 241 460 l 241 125 l 831 125 l 831 0 l 107 0 m 257 1086 l 390 1322 l 523 1322 l 657 1086 l 573 1086 l 457 1239 l 339 1086 l 257 1086 "},")":{"x_min":17,"x_max":331,"ha":467,"o":"m 105 -288 l 17 -288 q 160 36 113 -123 q 208 359 208 196 q 160 682 208 522 q 17 1007 113 842 l 105 1007 q 275 693 220 852 q 331 359 331 535 q 275 25 331 183 q 105 -288 220 -133 "},"Å":{"x_min":-4,"x_max":889,"ha":885,"o":"m 360 1184 q 383 1126 360 1150 q 442 1102 407 1102 q 500 1126 476 1102 q 525 1184 525 1151 q 500 1242 525 1217 q 442 1267 475 1267 q 384 1242 408 1267 q 360 1184 360 1217 m 289 1185 q 333 1293 289 1249 q 442 1338 378 1338 q 551 1293 507 1338 q 596 1185 596 1249 q 551 1075 596 1119 q 442 1031 507 1031 q 334 1076 379 1031 q 289 1185 289 1121 m 287 415 l 596 415 l 440 855 l 287 415 m -4 0 l 358 999 l 523 999 l 889 0 l 741 0 l 636 298 l 247 298 l 143 0 l -4 0 "},"¸":{"x_min":194.65625,"x_max":525,"ha":694,"o":"m 196 -275 l 194 -211 q 288 -230 245 -224 q 360 -237 332 -237 q 413 -224 395 -237 q 432 -186 432 -211 q 411 -145 432 -158 q 346 -133 390 -133 q 326 -133 333 -133 q 313 -133 319 -133 l 313 -12 l 363 -12 l 363 -75 l 381 -75 q 488 -102 451 -75 q 525 -181 525 -129 q 484 -271 525 -241 q 362 -301 443 -301 q 287 -294 329 -301 q 196 -275 244 -288 "},"a":{"x_min":49,"x_max":735,"ha":754,"o":"m 542 96 q 421 7 485 37 q 285 -22 357 -22 q 111 35 173 -22 q 49 196 49 93 q 110 351 49 295 q 297 424 171 407 q 383 433 329 427 q 497 451 476 442 q 525 473 518 459 q 532 530 532 486 q 491 613 532 585 q 368 641 450 641 q 240 607 283 641 q 197 507 197 573 l 82 507 l 82 512 q 159 686 82 622 q 372 750 236 750 q 587 695 518 750 q 656 524 656 640 l 656 161 q 666 100 656 114 q 702 87 676 87 q 716 88 708 87 q 735 91 724 89 l 735 -2 q 696 -11 712 -9 q 664 -14 679 -14 q 572 12 603 -14 q 542 92 542 38 l 542 96 m 531 369 q 363 328 482 343 q 300 320 321 323 q 204 280 233 309 q 175 197 175 252 q 208 114 175 143 q 306 85 242 85 q 467 134 404 85 q 531 261 531 184 l 531 369 "},"=":{"x_min":172,"x_max":984,"ha":1157,"o":"m 984 326 l 984 232 l 172 232 l 172 326 l 984 326 m 984 596 l 984 501 l 172 501 l 172 596 l 984 596 "},"˚":{"x_min":176,"x_max":519,"ha":694,"o":"m 255 964 q 281 899 255 926 q 347 873 308 873 q 412 899 385 873 q 440 964 440 926 q 412 1029 440 1002 q 347 1057 385 1057 q 281 1030 308 1057 q 255 964 255 1003 m 176 965 q 225 1086 176 1036 q 346 1136 274 1136 q 468 1086 418 1136 q 519 965 519 1036 q 468 843 519 893 q 346 794 418 794 q 225 843 274 794 q 176 965 176 893 "},"ú":{"x_min":90,"x_max":697,"ha":790,"o":"m 213 726 l 213 281 q 246 132 213 174 q 360 91 280 91 q 520 152 466 91 q 575 335 575 214 l 575 726 l 697 726 l 697 0 l 580 0 l 580 109 q 482 13 542 45 q 340 -18 421 -18 q 208 7 264 -18 q 121 81 151 33 q 97 143 104 107 q 90 256 90 178 l 90 290 l 90 726 l 213 726 m 299 825 l 437 1061 l 574 1061 l 380 825 l 299 825 "},"¯":{"x_min":164,"x_max":530,"ha":694,"o":"m 164 888 l 164 984 l 530 984 l 530 888 l 164 888 "},"Z":{"x_min":39,"x_max":807,"ha":831,"o":"m 39 0 l 39 112 l 649 880 l 79 880 l 79 999 l 807 999 l 807 873 l 208 122 l 807 122 l 807 0 l 39 0 "},"u":{"x_min":90,"x_max":697,"ha":790,"o":"m 213 726 l 213 281 q 246 132 213 174 q 360 91 280 91 q 520 152 466 91 q 575 335 575 214 l 575 726 l 697 726 l 697 0 l 580 0 l 580 109 q 482 13 542 45 q 340 -18 421 -18 q 208 7 264 -18 q 121 81 151 33 q 97 143 104 107 q 90 256 90 178 l 90 290 l 90 726 l 213 726 "},"k":{"x_min":93,"x_max":697.0625,"ha":718,"o":"m 93 0 l 93 999 l 215 999 l 215 399 l 543 726 l 697 726 l 425 460 l 693 0 l 555 0 l 343 376 l 215 252 l 215 0 l 93 0 "},"Ù":{"x_min":102,"x_max":884,"ha":985,"o":"m 102 379 l 102 999 l 238 999 l 238 377 q 300 170 238 237 q 492 103 362 103 q 684 171 621 103 q 748 377 748 239 l 748 999 l 884 999 l 884 379 q 780 75 884 178 q 476 -28 677 -28 q 195 73 289 -28 q 102 379 102 175 m 591 1086 l 509 1086 l 316 1322 l 452 1322 l 591 1086 "},"¢":{"x_min":57,"x_max":675,"ha":762,"o":"m 418 637 q 395 639 402 639 q 382 640 388 640 q 238 567 291 640 q 186 365 186 494 q 206 217 186 275 q 270 120 226 159 l 418 637 m 554 261 l 675 261 q 582 55 664 132 q 373 -21 500 -21 q 332 -19 351 -21 q 296 -14 314 -17 l 255 -158 l 192 -158 l 237 6 q 102 141 147 52 q 57 360 57 229 q 145 642 57 536 q 378 749 233 749 q 411 747 394 749 q 447 743 429 746 l 484 868 l 547 868 l 507 727 q 626 636 584 698 q 674 485 669 574 l 552 485 q 531 562 549 529 q 475 616 512 594 l 327 93 q 349 90 338 91 q 372 89 361 89 q 491 133 443 89 q 554 261 538 178 "},"Ş":{"x_min":61,"x_max":836,"ha":897,"o":"m 61 329 l 192 329 q 264 155 194 219 q 451 91 334 91 q 634 140 568 91 q 701 275 701 189 q 458 446 701 388 q 396 461 418 456 q 155 563 218 504 q 93 729 93 622 q 190 943 93 862 q 450 1025 288 1025 q 711 939 615 1025 q 807 706 807 854 l 677 706 q 609 859 670 805 q 441 913 547 913 q 282 869 342 913 q 223 753 223 825 q 464 581 223 637 q 525 566 504 572 q 775 460 715 521 q 836 287 836 399 q 737 56 836 139 q 459 -28 639 -25 l 459 -75 l 476 -75 q 583 -102 546 -75 q 621 -181 621 -130 q 580 -271 621 -241 q 458 -301 539 -301 q 381 -294 424 -301 q 292 -275 339 -288 l 290 -212 q 387 -230 344 -224 q 457 -237 431 -237 q 509 -224 491 -237 q 528 -186 528 -211 q 508 -146 528 -159 q 447 -133 488 -133 q 426 -133 436 -133 q 409 -133 417 -133 l 409 -28 q 159 76 252 -18 q 61 329 66 172 "},"é":{"x_min":58,"x_max":712,"ha":760,"o":"m 185 429 l 584 429 q 532 585 583 530 q 387 641 481 641 q 245 586 297 641 q 185 429 193 532 m 581 234 l 702 234 q 597 45 682 114 q 384 -24 512 -24 q 145 77 232 -24 q 58 355 58 179 q 144 645 58 541 q 383 750 231 750 q 626 653 540 750 q 712 381 712 557 q 711 348 712 358 q 710 327 711 337 l 185 327 q 242 149 187 212 q 395 87 297 87 q 518 125 469 87 q 581 234 566 163 m 291 825 l 429 1061 l 566 1061 l 372 825 l 291 825 "},"B":{"x_min":107,"x_max":868,"ha":920,"o":"m 107 0 l 107 999 l 510 999 q 743 937 665 999 q 821 755 821 876 q 784 622 821 677 q 677 539 748 568 q 817 458 767 522 q 868 298 868 395 q 777 80 868 161 q 530 0 686 0 l 107 0 m 243 579 l 480 579 q 635 616 586 579 q 685 735 685 654 q 637 848 685 811 q 491 885 590 885 l 243 885 l 243 579 m 243 121 l 518 121 q 675 166 621 121 q 729 299 729 212 q 674 427 729 386 q 502 468 619 468 l 243 468 l 243 121 "},"…":{"x_min":162,"x_max":1228,"ha":1389,"o":"m 162 0 l 162 151 l 301 151 l 301 0 l 162 0 m 625 0 l 625 151 l 764 151 l 764 0 l 625 0 m 1089 0 l 1089 151 l 1228 151 l 1228 0 l 1089 0 "},"H":{"x_min":107,"x_max":897,"ha":1004,"o":"m 107 0 l 107 999 l 243 999 l 243 589 l 761 589 l 761 999 l 897 999 l 897 0 l 761 0 l 761 468 l 243 468 l 243 0 l 107 0 "},"î":{"x_min":-46,"x_max":354,"ha":309,"o":"m 93 0 l 93 726 l 215 726 l 215 0 l 93 0 m -46 825 l 87 1061 l 220 1061 l 354 825 l 270 825 l 154 978 l 36 825 l -46 825 "},"−":{"x_min":172,"x_max":984,"ha":1157,"o":"m 984 463 l 984 367 l 172 367 l 172 463 l 984 463 "},"≠":{"x_min":172,"x_max":984,"ha":1157,"o":"m 889 754 l 763 595 l 984 595 l 984 503 l 702 503 l 563 325 l 984 325 l 984 233 l 503 233 l 334 18 l 263 75 l 388 233 l 172 233 l 172 325 l 448 325 l 586 503 l 172 503 l 172 595 l 647 595 l 818 809 l 889 754 "},"¥":{"x_min":11,"x_max":827,"ha":838,"o":"m 488 0 l 363 0 l 363 382 l 11 382 l 11 444 l 323 444 l 266 530 l 11 530 l 11 592 l 229 592 l 11 943 l 165 943 l 425 498 l 686 943 l 827 943 l 614 592 l 827 592 l 827 530 l 575 530 l 522 444 l 827 444 l 827 382 l 488 382 l 488 0 "},"U":{"x_min":102,"x_max":884,"ha":985,"o":"m 102 379 l 102 999 l 238 999 l 238 377 q 300 170 238 237 q 492 103 362 103 q 684 171 621 103 q 748 377 748 239 l 748 999 l 884 999 l 884 379 q 780 75 884 178 q 476 -28 677 -28 q 195 73 289 -28 q 102 379 102 175 "},"Ñ":{"x_min":106,"x_max":896,"ha":1002,"o":"m 106 0 l 106 999 l 254 999 l 720 273 q 747 228 736 249 q 766 189 759 207 l 766 999 l 896 999 l 896 0 l 748 0 l 272 735 q 252 771 261 752 q 235 809 243 789 l 235 0 l 106 0 m 700 1273 q 652 1168 686 1204 q 566 1133 618 1133 q 546 1134 557 1133 q 522 1139 535 1136 l 456 1157 q 439 1161 448 1160 q 423 1163 431 1163 q 387 1151 403 1163 q 363 1117 372 1139 l 303 1117 q 349 1219 315 1183 q 433 1255 382 1255 q 455 1253 445 1255 q 473 1249 465 1252 l 540 1230 q 559 1226 550 1227 q 576 1225 568 1225 q 615 1237 599 1225 q 640 1273 630 1249 l 700 1273 "},"F":{"x_min":107,"x_max":778,"ha":810,"o":"m 107 0 l 107 999 l 778 999 l 778 874 l 243 874 l 243 574 l 710 574 l 710 452 l 243 452 l 243 0 l 107 0 "},"*":{"x_min":74,"x_max":620,"ha":694,"o":"m 346 644 l 228 473 l 133 536 l 267 702 l 74 755 l 108 863 l 295 799 l 295 999 l 399 999 l 399 799 l 582 863 l 620 755 l 425 702 l 559 537 l 466 468 l 346 644 "},"†":{"x_min":40,"x_max":655,"ha":694,"o":"m 289 -147 l 289 618 l 40 618 l 40 724 l 289 724 l 289 999 l 406 999 l 406 724 l 655 724 l 655 618 l 406 618 l 406 -147 l 289 -147 "},"∕":{"x_min":-232,"x_max":462,"ha":232,"o":"m -232 -28 l 377 971 l 462 971 l -147 -28 l -232 -28 "},"°":{"x_min":33,"x_max":423,"ha":457,"o":"m 359 793 q 321 885 359 847 q 229 923 283 923 q 135 885 174 923 q 97 793 97 847 q 135 699 97 738 q 229 661 174 661 q 321 699 283 661 q 359 793 359 738 m 228 987 q 365 929 308 987 q 423 790 423 872 q 366 653 423 710 q 227 597 309 597 q 89 653 145 597 q 33 790 33 709 q 90 929 33 872 q 228 987 147 987 "},"å":{"x_min":49,"x_max":735,"ha":754,"o":"m 220 936 q 264 1045 220 1001 q 372 1090 308 1090 q 480 1045 436 1090 q 525 936 525 1001 q 480 827 525 872 q 372 783 436 783 q 264 828 308 783 q 220 936 220 873 m 292 936 q 315 877 292 901 q 372 854 339 854 q 429 878 405 854 q 453 936 453 902 q 429 994 453 970 q 372 1019 405 1019 q 316 994 340 1019 q 292 936 292 970 m 542 97 q 421 7 485 37 q 285 -22 357 -22 q 111 35 173 -22 q 49 196 49 93 q 110 351 49 295 q 297 424 171 407 q 383 433 329 427 q 497 451 476 442 q 525 473 518 459 q 532 530 532 486 q 491 613 532 585 q 368 641 450 641 q 240 607 283 641 q 197 507 197 573 l 82 507 l 82 512 q 159 686 82 622 q 372 750 236 750 q 587 695 518 750 q 656 524 656 640 l 656 161 q 666 101 656 114 q 702 87 676 87 q 716 88 708 87 q 735 91 724 89 l 735 -2 q 696 -10 712 -8 q 664 -13 679 -13 q 572 13 603 -13 q 542 93 542 39 l 542 97 m 531 369 q 363 328 482 343 q 300 320 321 323 q 204 280 233 309 q 175 197 175 252 q 208 114 175 143 q 306 85 242 85 q 467 134 404 85 q 531 261 531 184 l 531 369 "},"0":{"x_min":47,"x_max":715,"ha":762,"o":"m 180 470 q 228 177 180 269 q 380 86 276 86 q 532 177 484 86 q 580 470 580 268 q 532 765 580 673 q 380 857 484 857 q 228 764 276 857 q 180 470 180 671 m 47 470 q 131 843 47 716 q 379 971 216 971 q 629 843 544 971 q 715 470 715 716 q 629 98 715 225 q 379 -28 544 -28 q 131 98 216 -28 q 47 470 47 225 "},"":{"x_min":77,"x_max":1021,"ha":1097,"o":"m 567 824 q 566 834 566 828 q 565 849 565 839 q 630 1005 565 934 q 790 1094 694 1077 q 791 1079 791 1087 q 791 1052 791 1070 q 721 893 791 963 q 583 823 651 823 l 578 823 q 573 824 576 823 q 567 824 570 824 m 1021 273 q 881 40 943 105 q 743 -24 820 -24 q 654 -1 709 -24 q 571 20 599 20 q 482 -1 540 20 q 396 -24 424 -24 q 309 5 353 -24 q 221 95 265 35 q 114 295 152 190 q 77 499 77 401 q 161 741 77 648 q 380 835 246 835 q 485 811 426 835 q 569 788 544 788 q 652 812 592 788 q 755 836 711 836 q 889 809 830 836 q 999 725 949 782 q 896 626 929 680 q 863 502 863 571 q 903 366 863 425 q 1021 273 944 307 "},"”":{"x_min":105,"x_max":466,"ha":574,"o":"m 330 860 l 330 999 l 466 999 l 466 838 q 430 720 466 766 q 330 661 395 674 l 330 723 q 380 756 361 727 q 400 830 400 785 l 400 860 l 330 860 m 105 860 l 105 999 l 241 999 l 241 838 q 205 720 241 766 q 105 661 170 674 l 105 723 q 156 756 137 727 q 175 830 175 785 l 175 860 l 105 860 "},"ö":{"x_min":56,"x_max":752,"ha":807,"o":"m 181 364 q 239 158 181 229 q 404 87 297 87 q 569 158 512 87 q 626 364 626 229 q 569 569 626 498 q 404 641 512 641 q 238 569 296 641 q 181 364 181 498 m 56 364 q 147 648 56 546 q 403 750 238 750 q 660 648 568 750 q 752 364 752 547 q 660 79 752 181 q 404 -22 569 -22 q 147 79 239 -22 q 56 364 56 180 m 454 864 l 454 1007 l 577 1007 l 577 864 l 454 864 m 231 864 l 231 1007 l 354 1007 l 354 864 l 231 864 "},"Õ":{"x_min":64,"x_max":1010,"ha":1074,"o":"m 204 498 q 292 198 204 306 q 538 90 381 90 q 782 198 694 90 q 870 498 870 306 q 782 799 870 691 q 538 907 694 907 q 292 799 381 907 q 204 498 204 691 m 64 498 q 189 885 64 746 q 538 1025 315 1025 q 884 885 759 1025 q 1010 498 1010 746 q 884 111 1010 250 q 538 -28 759 -28 q 189 111 315 -28 q 64 498 64 250 m 737 1273 q 689 1168 723 1204 q 603 1133 655 1133 q 583 1134 594 1133 q 559 1139 572 1136 l 493 1157 q 476 1161 485 1160 q 460 1163 468 1163 q 424 1151 440 1163 q 400 1117 409 1139 l 340 1117 q 386 1219 352 1183 q 470 1255 419 1255 q 492 1253 482 1255 q 510 1249 502 1252 l 577 1230 q 596 1226 587 1227 q 613 1225 605 1225 q 652 1237 636 1225 q 677 1273 667 1249 l 737 1273 "},"ć":{"x_min":56,"x_max":698,"ha":729,"o":"m 576 485 q 521 599 570 559 q 389 640 473 640 q 236 568 290 640 q 182 365 182 497 q 233 160 182 232 q 380 89 285 89 q 517 133 466 89 q 581 261 568 177 l 698 261 q 603 52 688 127 q 375 -22 518 -22 q 141 80 226 -22 q 56 360 56 182 q 144 646 56 543 q 389 750 233 750 q 609 678 526 750 q 697 485 691 607 l 576 485 m 289 825 l 427 1061 l 564 1061 l 370 825 l 289 825 "},"þ":{"x_min":93,"x_max":766,"ha":823,"o":"m 207 358 q 262 155 207 223 q 423 87 316 87 q 582 161 526 87 q 638 373 638 236 q 580 568 638 497 q 421 640 522 640 q 263 566 319 640 q 207 358 207 493 m 93 -290 l 93 999 l 212 999 l 212 623 q 314 719 258 689 q 446 750 370 750 q 679 645 592 750 q 766 365 766 541 q 678 83 766 188 q 446 -22 591 -22 q 312 5 370 -22 q 212 89 254 33 l 212 -290 l 93 -290 "},"]":{"x_min":53,"x_max":324,"ha":492,"o":"m 324 999 l 324 -277 l 53 -277 l 53 -183 l 202 -183 l 202 905 l 53 905 l 53 999 l 324 999 "},"8":{"x_min":49,"x_max":714,"ha":762,"o":"m 183 279 q 235 139 183 190 q 380 89 288 89 q 525 140 472 89 q 579 279 579 191 q 525 409 579 361 q 380 457 472 457 q 235 409 288 457 q 183 279 183 362 m 212 711 q 258 600 212 642 q 380 558 304 558 q 502 600 456 558 q 549 711 549 642 q 504 820 549 781 q 380 860 460 860 q 256 820 301 860 q 212 711 212 781 m 209 519 q 113 598 144 548 q 82 722 82 648 q 164 902 82 833 q 380 971 246 971 q 598 901 515 971 q 681 722 681 832 q 649 598 681 648 q 553 519 617 548 q 673 426 632 488 q 714 276 714 365 q 623 54 714 137 q 380 -28 533 -28 q 138 54 227 -28 q 49 276 49 137 q 89 426 49 365 q 209 519 130 488 "},"R":{"x_min":107,"x_max":874,"ha":922,"o":"m 239 882 l 239 543 l 471 543 q 649 583 597 543 q 701 719 701 624 q 652 845 701 808 q 471 882 603 882 l 239 882 m 107 999 l 493 999 q 632 990 588 999 q 712 963 676 982 q 808 867 775 929 q 841 722 841 805 q 806 584 841 641 q 703 494 772 526 q 786 439 761 478 q 817 308 810 400 l 828 143 q 842 64 832 90 q 874 27 853 38 l 874 0 l 717 0 q 691 133 698 31 l 691 137 l 683 267 q 640 398 676 368 q 460 428 604 428 l 241 428 l 241 0 l 107 0 l 107 999 "},"o":{"x_min":56,"x_max":752,"ha":807,"o":"m 181 364 q 239 158 181 229 q 404 87 297 87 q 569 158 512 87 q 626 364 626 229 q 569 569 626 498 q 404 641 512 641 q 238 569 296 641 q 181 364 181 498 m 56 364 q 147 648 56 546 q 403 750 238 750 q 660 648 568 750 q 752 364 752 547 q 660 79 752 181 q 404 -22 569 -22 q 147 79 239 -22 q 56 364 56 180 "},"5":{"x_min":37,"x_max":708,"ha":762,"o":"m 37 250 l 165 250 q 227 133 176 175 q 357 91 279 91 q 514 149 455 91 q 574 305 574 208 q 516 462 574 404 q 359 520 458 520 q 257 497 303 520 q 175 431 210 475 l 65 431 l 141 943 l 655 943 l 655 829 l 232 829 l 194 568 q 277 615 230 599 q 380 631 324 631 q 618 543 528 631 q 708 312 708 456 q 613 65 708 159 q 364 -28 518 -28 q 137 48 226 -28 q 37 250 48 124 "},"õ":{"x_min":56,"x_max":752,"ha":807,"o":"m 181 364 q 239 158 181 229 q 404 87 297 87 q 569 158 512 87 q 626 364 626 229 q 569 569 626 498 q 404 641 512 641 q 238 569 296 641 q 181 364 181 498 m 56 364 q 147 648 56 546 q 403 750 238 750 q 660 648 568 750 q 752 364 752 547 q 660 79 752 181 q 404 -22 569 -22 q 147 79 239 -22 q 56 364 56 180 m 603 1012 q 555 907 589 943 q 469 872 521 872 q 449 873 460 872 q 425 878 438 875 l 359 896 q 342 900 351 899 q 326 902 334 902 q 290 890 306 902 q 266 856 275 878 l 206 856 q 252 958 218 922 q 336 994 285 994 q 358 992 348 994 q 376 988 368 991 l 443 969 q 462 965 453 966 q 479 964 471 964 q 518 976 502 964 q 543 1012 533 988 l 603 1012 "},",":{"x_min":121,"x_max":260,"ha":380,"o":"m 121 0 l 121 150 l 260 150 l 260 -12 q 223 -138 260 -88 q 121 -205 187 -188 l 121 -135 q 171 -99 153 -129 q 189 -20 189 -69 l 189 0 l 121 0 "},"d":{"x_min":56,"x_max":728,"ha":825,"o":"m 614 368 q 559 571 614 503 q 397 640 504 640 q 238 565 294 640 q 182 353 182 490 q 239 158 182 229 q 399 87 297 87 q 557 160 501 87 q 614 368 614 233 m 728 999 l 728 0 l 609 0 l 609 92 q 504 6 563 35 q 373 -22 445 -22 q 142 82 228 -22 q 56 360 56 186 q 142 644 56 539 q 373 750 229 750 q 508 721 449 750 q 609 637 567 693 l 609 999 l 728 999 "},"\"":{"x_min":61,"x_max":355,"ha":416,"o":"m 355 974 l 355 598 l 261 598 l 261 974 l 355 974 m 155 974 l 155 598 l 61 598 l 61 974 l 155 974 "},"˙":{"x_min":282,"x_max":413,"ha":694,"o":"m 282 861 l 282 1010 l 413 1010 l 413 861 l 282 861 "},"ê":{"x_min":58,"x_max":712,"ha":760,"o":"m 185 429 l 584 429 q 532 585 583 530 q 387 641 481 641 q 245 586 297 641 q 185 429 193 532 m 581 234 l 702 234 q 597 45 682 114 q 384 -24 512 -24 q 145 77 232 -24 q 58 355 58 179 q 144 645 58 541 q 383 750 231 750 q 626 653 540 750 q 712 381 712 557 q 711 348 712 358 q 710 327 711 337 l 185 327 q 242 149 187 212 q 395 87 297 87 q 518 125 469 87 q 581 234 566 163 m 188 825 l 321 1061 l 454 1061 l 588 825 l 504 825 l 388 978 l 270 825 l 188 825 "},"„":{"x_min":105,"x_max":466,"ha":574,"o":"m 330 0 l 330 138 l 466 138 l 466 -22 q 430 -140 466 -94 q 330 -200 395 -186 l 330 -136 q 380 -102 361 -131 q 400 -29 400 -73 l 400 0 l 330 0 m 105 0 l 105 138 l 241 138 l 241 -22 q 205 -140 241 -94 q 105 -200 170 -186 l 105 -136 q 156 -102 137 -131 q 175 -29 175 -73 l 175 0 l 105 0 "},"Â":{"x_min":-4,"x_max":889,"ha":885,"o":"m 284 415 l 596 415 l 441 855 l 284 415 m -4 0 l 366 999 l 516 999 l 889 0 l 741 0 l 636 298 l 242 298 l 136 0 l -4 0 m 243 1086 l 376 1322 l 509 1322 l 643 1086 l 559 1086 l 443 1239 l 325 1086 l 243 1086 "},"Í":{"x_min":82,"x_max":357,"ha":357,"o":"m 110 0 l 110 999 l 246 999 l 246 0 l 110 0 m 82 1086 l 220 1322 l 357 1322 l 163 1086 l 82 1086 "},"´":{"x_min":250,"x_max":525,"ha":694,"o":"m 250 825 l 388 1061 l 525 1061 l 331 825 l 250 825 "},"Ú":{"x_min":102,"x_max":884,"ha":985,"o":"m 102 379 l 102 999 l 238 999 l 238 377 q 300 170 238 237 q 492 103 362 103 q 684 171 621 103 q 748 377 748 239 l 748 999 l 884 999 l 884 379 q 780 75 884 178 q 476 -28 677 -28 q 195 73 289 -28 q 102 379 102 175 m 396 1086 l 534 1322 l 671 1322 l 477 1086 l 396 1086 "},"Ý":{"x_min":-12,"x_max":851,"ha":838,"o":"m 495 0 l 359 0 l 359 400 l -12 999 l 158 999 l 425 526 l 691 999 l 851 999 l 495 409 l 495 0 m 322 1086 l 460 1322 l 597 1322 l 403 1086 l 322 1086 "},"Ω":{"x_min":53.109375,"x_max":1008.53125,"ha":1061,"o":"m 1008 121 l 1008 0 l 601 0 l 601 121 q 788 299 721 186 q 856 548 856 411 q 766 809 856 711 q 530 908 676 908 q 293 809 383 908 q 204 548 204 710 q 271 299 204 411 q 460 121 339 186 l 460 0 l 53 0 l 53 121 l 269 121 q 113 316 162 215 q 64 542 64 417 q 193 891 64 757 q 530 1025 323 1025 q 866 891 735 1025 q 997 548 997 758 q 948 316 997 417 q 791 121 900 216 l 1008 121 "},"Ö":{"x_min":64,"x_max":1010,"ha":1074,"o":"m 204 498 q 292 198 204 306 q 538 90 381 90 q 782 198 694 90 q 870 498 870 306 q 782 799 870 691 q 538 907 694 907 q 292 799 381 907 q 204 498 204 691 m 64 498 q 189 885 64 746 q 538 1025 315 1025 q 884 885 759 1025 q 1010 498 1010 746 q 884 111 1010 250 q 538 -28 759 -28 q 189 111 315 -28 q 64 498 64 250 m 588 1125 l 588 1268 l 711 1268 l 711 1125 l 588 1125 m 365 1125 l 365 1268 l 488 1268 l 488 1125 l 365 1125 "},"z":{"x_min":35,"x_max":641,"ha":668,"o":"m 621 726 l 621 627 l 196 110 l 641 110 l 641 0 l 35 0 l 35 99 l 464 619 l 57 619 l 57 726 l 621 726 "},"™":{"x_min":164,"x_max":952,"ha":1157,"o":"m 652 989 l 754 727 l 850 989 l 952 989 l 952 624 l 886 624 l 886 925 l 773 624 l 735 624 l 617 925 l 617 624 l 551 624 l 551 989 l 652 989 m 471 989 l 471 935 l 354 935 l 354 624 l 281 624 l 281 935 l 164 935 l 164 989 l 471 989 "},"ã":{"x_min":49,"x_max":735,"ha":754,"o":"m 542 96 q 421 7 485 37 q 285 -22 357 -22 q 111 35 173 -22 q 49 196 49 93 q 110 351 49 295 q 297 424 171 407 q 383 433 329 427 q 497 451 476 442 q 525 473 518 459 q 532 530 532 486 q 491 613 532 585 q 368 641 450 641 q 240 607 283 641 q 197 507 197 573 l 82 507 l 82 512 q 159 686 82 622 q 372 750 236 750 q 587 695 518 750 q 656 524 656 640 l 656 161 q 666 100 656 114 q 702 87 676 87 q 716 88 708 87 q 735 91 724 89 l 735 -2 q 696 -11 712 -9 q 664 -14 679 -14 q 572 12 603 -14 q 542 92 542 38 l 542 96 m 531 369 q 363 328 482 343 q 300 320 321 323 q 204 280 233 309 q 175 197 175 252 q 208 114 175 143 q 306 85 242 85 q 467 134 404 85 q 531 261 531 184 l 531 369 m 577 1012 q 529 907 563 943 q 443 872 495 872 q 423 873 434 872 q 399 878 412 875 l 333 896 q 316 900 325 899 q 300 902 308 902 q 264 890 280 902 q 240 856 249 878 l 180 856 q 226 958 192 922 q 310 994 259 994 q 332 992 322 994 q 350 988 342 991 l 417 969 q 436 965 427 966 q 453 964 445 964 q 492 976 476 964 q 517 1012 507 988 l 577 1012 "},"æ":{"x_min":52,"x_max":1174,"ha":1225,"o":"m 646 429 l 1046 429 q 994 586 1045 531 q 850 642 943 642 q 707 587 759 642 q 646 429 654 532 m 529 365 q 387 330 467 342 q 298 317 307 319 q 206 272 234 299 q 179 198 179 244 q 215 114 179 144 q 318 84 252 84 q 467 134 406 84 q 529 256 529 184 l 529 365 m 572 110 q 445 8 509 40 q 304 -24 381 -24 q 119 32 186 -24 q 52 185 52 88 q 111 349 52 288 q 286 424 171 410 q 365 432 315 427 q 531 519 531 448 q 493 614 531 584 q 369 643 455 643 q 245 610 288 643 q 203 514 203 576 l 203 509 l 88 509 l 88 514 q 164 685 88 622 q 371 749 240 749 q 525 722 461 749 q 622 644 588 696 q 723 723 664 697 q 860 749 782 749 q 1089 647 1004 749 q 1174 371 1174 545 q 1173 345 1174 353 q 1171 329 1173 337 l 649 329 q 700 146 651 205 q 846 87 748 87 q 977 123 929 87 q 1041 235 1025 160 l 1162 235 q 1054 42 1140 109 q 830 -24 968 -24 q 671 9 735 -24 q 572 110 608 42 "},"É":{"x_min":107,"x_max":831,"ha":888,"o":"m 107 0 l 107 999 l 819 999 l 819 875 l 241 875 l 241 577 l 775 577 l 775 460 l 241 460 l 241 125 l 831 125 l 831 0 l 107 0 m 360 1086 l 498 1322 l 635 1322 l 441 1086 l 360 1086 "},"~":{"x_min":121,"x_max":1038,"ha":1157,"o":"m 1038 417 q 903 344 967 367 q 774 321 838 321 q 600 360 711 321 q 577 369 585 366 l 567 372 q 382 414 447 414 q 263 388 325 414 q 121 307 201 363 l 121 412 q 258 485 192 461 q 383 510 323 510 q 469 500 425 510 q 580 467 514 491 q 612 455 591 464 q 775 417 720 417 q 897 442 835 417 q 1038 523 959 467 l 1038 417 "},"³":{"x_min":21,"x_max":465,"ha":503,"o":"m 21 560 l 104 560 q 141 464 106 497 q 241 431 177 431 q 339 461 303 431 q 376 546 376 492 q 340 620 376 594 q 241 647 305 647 q 213 646 223 647 q 196 646 203 646 l 196 711 q 207 711 201 711 q 222 711 213 711 q 322 732 291 711 q 353 801 353 753 q 323 868 353 845 q 240 892 294 892 q 148 860 179 892 q 117 769 117 829 l 36 769 l 36 773 q 90 909 36 859 q 235 960 144 960 q 386 919 333 960 q 440 804 440 878 q 420 732 440 762 q 360 687 400 703 q 438 634 412 670 q 465 545 465 598 q 402 411 465 461 q 235 361 340 361 q 79 413 137 361 q 21 555 21 466 l 21 560 "},"¡":{"x_min":154,"x_max":290,"ha":446,"o":"m 258 756 l 290 323 l 290 0 l 154 0 l 154 323 l 187 756 l 258 756 m 290 999 l 290 848 l 154 848 l 154 999 l 290 999 "},"[":{"x_min":168,"x_max":439,"ha":492,"o":"m 168 -277 l 168 999 l 439 999 l 439 905 l 290 905 l 290 -183 l 439 -183 l 439 -277 l 168 -277 "},"%":{"x_min":49,"x_max":1125,"ha":1174,"o":"m 746 241 q 785 142 746 182 q 884 102 825 102 q 982 142 941 102 q 1023 241 1023 183 q 982 339 1023 299 q 884 380 942 380 q 786 339 826 380 q 746 241 746 299 m 644 241 q 713 412 644 342 q 884 482 783 482 q 1053 411 982 482 q 1125 241 1125 341 q 1054 70 1125 141 q 884 0 983 0 q 713 70 783 0 q 644 241 644 140 m 151 702 q 190 603 151 643 q 289 563 230 563 q 387 603 346 563 q 428 702 428 644 q 387 800 428 760 q 289 841 346 841 q 191 800 231 841 q 151 702 151 760 m 49 702 q 118 873 49 803 q 289 943 188 943 q 459 872 389 943 q 530 702 530 802 q 459 531 530 602 q 289 461 389 461 q 118 531 188 461 q 49 702 49 601 m 248 -27 l 842 970 l 927 970 l 332 -27 l 248 -27 "},"P":{"x_min":107,"x_max":820,"ha":875,"o":"m 243 542 l 470 542 q 635 579 588 542 q 683 710 683 617 q 636 837 683 798 q 480 876 589 876 l 243 876 l 243 542 m 107 0 l 107 999 l 474 999 q 610 990 563 999 q 694 961 657 981 q 787 862 754 927 q 820 710 820 797 q 787 562 820 626 q 692 461 754 499 q 608 430 656 439 q 448 421 559 421 l 243 421 l 243 0 l 107 0 "},"∏":{"x_min":106,"x_max":945,"ha":1051,"o":"m 106 999 l 945 999 l 945 -266 l 782 -266 l 782 860 l 269 860 l 269 -266 l 106 -266 l 106 999 "},"_":{"x_min":0,"x_max":694,"ha":694,"o":"m 694 -231 l 694 -328 l 0 -328 l 0 -231 l 694 -231 "},"ñ":{"x_min":93,"x_max":700,"ha":790,"o":"m 577 0 l 577 446 q 544 594 577 553 q 430 636 511 636 q 271 578 328 636 q 215 413 215 520 l 215 0 l 93 0 l 93 726 l 209 726 l 209 620 q 309 714 251 683 q 442 745 366 745 q 581 720 525 745 q 668 645 637 695 q 692 583 685 619 q 700 470 700 548 l 700 435 l 700 0 l 577 0 m 603 1012 q 555 907 589 943 q 469 872 521 872 q 449 873 460 872 q 425 878 438 875 l 359 896 q 342 900 351 899 q 326 902 334 902 q 290 890 306 902 q 266 856 275 878 l 206 856 q 252 958 218 922 q 336 994 285 994 q 358 992 348 994 q 376 988 368 991 l 443 969 q 462 965 453 966 q 479 964 471 964 q 518 976 502 964 q 543 1012 533 988 l 603 1012 "},"‚":{"x_min":107,"x_max":241,"ha":349,"o":"m 107 0 l 107 138 l 241 138 l 241 -22 q 206 -140 241 -94 q 107 -200 171 -186 l 107 -136 q 156 -103 138 -132 q 175 -29 175 -74 l 175 0 l 107 0 "},"Æ":{"x_min":-21,"x_max":1258,"ha":1317,"o":"m 290 415 l 572 415 l 572 884 l 471 884 l 290 415 m -21 0 l 391 999 l 1251 999 l 1251 875 l 705 875 l 705 577 l 1207 577 l 1207 460 l 705 460 l 705 125 l 1258 125 l 1258 0 l 572 0 l 572 298 l 243 298 l 127 0 l -21 0 "},"₣":{"x_min":107,"x_max":1254,"ha":1271,"o":"m 107 0 l 107 999 l 778 999 l 778 874 l 243 874 l 243 574 l 710 574 l 710 452 l 243 452 l 243 0 l 107 0 m 903 0 l 903 726 l 1020 726 l 1020 595 q 1099 705 1050 669 q 1222 742 1149 742 q 1241 741 1235 742 q 1254 739 1247 741 l 1254 610 q 1243 611 1249 611 q 1224 612 1237 612 q 1076 558 1127 612 q 1025 403 1025 505 l 1025 0 l 903 0 "},"ğ":{"x_min":58,"x_max":733,"ha":827,"o":"m 399 640 q 240 568 296 640 q 185 362 185 496 q 242 158 185 231 q 400 86 299 86 q 565 152 512 86 q 619 357 619 219 q 563 568 619 497 q 399 640 508 640 m 614 88 q 514 4 572 32 q 384 -24 457 -24 q 147 82 237 -24 q 58 365 58 189 q 147 644 58 539 q 385 750 237 750 q 512 722 457 750 q 613 634 566 695 l 613 726 l 733 726 l 733 15 q 652 -227 733 -152 q 394 -302 572 -302 q 168 -245 249 -302 q 87 -90 87 -189 l 87 -85 l 206 -85 l 206 -87 q 253 -171 206 -143 q 398 -200 301 -200 q 564 -155 513 -200 q 614 -11 614 -111 l 614 88 m 216 1037 l 289 1037 q 322 965 292 988 q 413 943 352 943 q 504 965 474 943 q 537 1037 534 988 l 611 1037 q 556 893 603 939 q 413 848 508 848 q 270 893 318 848 q 216 1037 223 939 "},"ª":{"x_min":31,"x_max":558.671875,"ha":566,"o":"m 69 386 l 520 386 l 520 310 l 69 310 l 69 386 m 394 746 q 277 720 361 730 q 228 714 244 716 q 158 688 178 706 q 138 633 138 669 q 161 578 138 597 q 231 560 185 560 q 347 593 301 560 q 394 679 394 627 l 394 746 m 402 551 q 314 494 361 513 q 214 475 267 475 q 79 517 128 475 q 31 633 31 559 q 78 745 31 704 q 221 797 125 786 q 297 805 252 801 q 394 868 394 814 q 364 921 394 903 q 277 939 335 939 q 184 916 214 939 q 154 846 154 893 l 56 846 l 56 854 q 115 979 56 934 q 279 1025 175 1025 q 445 986 391 1025 q 499 864 499 947 l 499 608 q 505 570 499 578 q 529 562 511 562 q 542 564 534 562 q 558 566 549 565 l 558 490 q 530 483 543 485 q 505 481 516 481 q 428 498 454 481 q 402 551 402 516 "},"Œ":{"x_min":62,"x_max":1544,"ha":1603,"o":"m 819 229 l 819 770 q 702 872 770 838 q 546 907 634 907 q 291 800 382 907 q 201 498 201 693 q 291 197 201 304 q 544 90 381 90 q 704 125 635 90 q 819 229 772 160 m 819 90 q 696 0 766 29 q 530 -28 627 -28 q 185 110 308 -28 q 62 498 62 248 q 184 885 62 746 q 523 1025 306 1025 q 695 996 621 1025 q 819 908 768 967 l 819 999 l 1531 999 l 1531 875 l 953 875 l 953 577 l 1488 577 l 1488 460 l 953 460 l 953 125 l 1544 125 l 1544 0 l 819 0 l 819 90 "},"T":{"x_min":13,"x_max":779,"ha":793,"o":"m 328 0 l 328 878 l 13 878 l 13 999 l 779 999 l 779 878 l 464 878 l 464 0 l 328 0 "},"š":{"x_min":44,"x_max":638,"ha":689,"o":"m 44 236 l 161 236 q 214 124 167 162 q 346 87 260 87 q 470 117 425 87 q 516 201 516 148 q 493 263 516 241 q 404 299 470 284 l 268 335 q 108 408 153 362 q 63 539 63 454 q 135 692 63 635 q 335 749 208 749 q 541 688 464 749 q 618 526 618 628 l 618 524 l 499 524 q 451 613 494 581 q 335 645 409 645 q 223 619 261 645 q 185 543 185 593 q 209 488 185 508 q 298 453 233 468 l 416 425 q 590 349 542 395 q 638 216 638 302 q 558 40 638 103 q 335 -22 478 -22 q 120 44 195 -22 q 44 236 46 110 m 144 1061 l 226 1061 l 344 906 l 460 1061 l 544 1061 l 410 825 l 277 825 l 144 1061 "},"Þ":{"x_min":107,"x_max":820,"ha":875,"o":"m 107 0 l 107 999 l 243 999 l 243 804 l 475 804 q 614 795 569 804 q 694 769 659 787 q 787 676 754 737 q 820 534 820 616 q 787 397 820 456 q 692 302 754 338 q 607 273 656 282 q 448 265 559 265 l 243 265 l 243 0 l 107 0 m 243 383 l 470 383 q 635 417 587 383 q 683 534 683 452 q 636 650 683 614 q 480 686 589 686 l 243 686 l 243 383 "},"j":{"x_min":-17,"x_max":224,"ha":319,"o":"m 102 857 l 102 999 l 224 999 l 224 857 l 102 857 m -17 -301 l -16 -189 q 0 -190 -8 -190 q 23 -191 8 -191 q 86 -174 70 -191 q 102 -93 102 -157 l 102 726 l 224 726 l 224 -110 q 181 -261 224 -217 q 38 -305 139 -305 q -8 -302 23 -304 q -17 -301 -14 -302 "},"1":{"x_min":131,"x_max":482,"ha":762,"o":"m 355 0 l 355 686 l 131 686 l 131 784 q 314 830 252 785 q 386 971 376 875 l 482 971 l 482 0 l 355 0 "},"›":{"x_min":65,"x_max":285,"ha":339,"o":"m 65 135 l 65 254 l 210 368 l 65 480 l 65 599 l 285 434 l 285 299 l 65 135 "},"<":{"x_min":179,"x_max":978,"ha":1157,"o":"m 978 682 l 320 413 l 978 147 l 978 43 l 179 371 l 179 458 l 978 786 l 978 682 "},"t":{"x_min":5.421875,"x_max":367,"ha":390,"o":"m 236 182 q 249 117 236 133 q 301 101 263 101 q 327 101 312 101 q 367 104 342 102 l 367 0 q 312 -7 336 -4 q 269 -10 288 -10 q 148 23 183 -10 q 114 141 114 56 l 114 629 l 5 629 l 5 726 l 114 726 l 114 929 l 236 929 l 236 726 l 367 726 l 367 629 l 236 629 l 236 182 "},"¬":{"x_min":172,"x_max":984,"ha":1157,"o":"m 984 583 l 984 243 l 891 243 l 891 489 l 172 489 l 172 583 l 984 583 "},"ù":{"x_min":90,"x_max":697,"ha":790,"o":"m 213 726 l 213 281 q 246 132 213 174 q 360 91 280 91 q 520 152 466 91 q 575 335 575 214 l 575 726 l 697 726 l 697 0 l 580 0 l 580 109 q 482 13 542 45 q 340 -18 421 -18 q 208 7 264 -18 q 121 81 151 33 q 97 143 104 107 q 90 256 90 178 l 90 290 l 90 726 l 213 726 m 494 825 l 412 825 l 219 1061 l 355 1061 l 494 825 "},"ï":{"x_min":-19,"x_max":327,"ha":309,"o":"m 93 0 l 93 726 l 215 726 l 215 0 l 93 0 m 204 864 l 204 1007 l 327 1007 l 327 864 l 204 864 m -19 864 l -19 1007 l 104 1007 l 104 864 l -19 864 "},"Ò":{"x_min":64,"x_max":1010,"ha":1074,"o":"m 204 498 q 292 198 204 306 q 538 90 381 90 q 782 198 694 90 q 870 498 870 306 q 782 799 870 691 q 538 907 694 907 q 292 799 381 907 q 204 498 204 691 m 64 498 q 189 885 64 746 q 538 1025 315 1025 q 884 885 759 1025 q 1010 498 1010 746 q 884 111 1010 250 q 538 -28 759 -28 q 189 111 315 -28 q 64 498 64 250 m 636 1086 l 554 1086 l 361 1322 l 497 1322 l 636 1086 "},"&":{"x_min":74,"x_max":943,"ha":949,"o":"m 421 619 q 526 709 493 663 q 560 808 560 755 q 527 893 560 860 q 440 926 494 926 q 348 894 382 926 q 315 806 315 862 q 340 720 315 766 q 421 619 365 675 m 374 493 q 242 388 282 440 q 203 273 203 337 q 255 144 203 195 q 388 93 307 93 q 504 122 449 93 q 610 208 560 151 l 374 493 m 308 574 q 223 691 250 636 q 197 802 197 746 q 263 963 197 900 q 435 1026 330 1026 q 609 968 545 1026 q 674 813 674 911 q 628 670 674 734 q 486 549 583 606 l 674 322 q 701 394 691 353 q 715 488 711 435 l 832 488 q 812 349 831 414 q 756 225 793 284 l 943 0 l 775 0 l 678 120 q 540 12 617 48 q 371 -24 464 -24 q 156 57 239 -24 q 74 264 74 138 q 128 432 74 359 q 308 574 183 505 "},"":{"x_min":-20,"x_max":730,"ha":762,"o":"m 597 368 l 730 367 q 634 79 725 186 q 397 -28 544 -28 q 168 82 252 -28 q 73 398 84 192 l -2 398 l 24 460 l 69 460 l 69 538 l -20 538 l 6 600 l 73 600 q 172 916 84 808 q 416 1025 259 1025 q 629 938 547 1025 q 725 699 711 852 l 591 699 q 532 857 579 803 q 406 911 485 911 q 262 834 311 911 q 206 600 213 758 l 511 600 l 484 538 l 204 538 l 204 460 l 448 460 l 422 398 l 206 398 q 261 163 212 240 q 405 86 310 86 q 542 160 491 86 q 597 368 592 234 "},"˝":{"x_min":211,"x_max":618,"ha":694,"o":"m 386 825 l 498 1061 l 618 1061 l 451 825 l 386 825 m 211 825 l 304 1061 l 425 1061 l 276 825 l 211 825 "},"I":{"x_min":110,"x_max":246,"ha":357,"o":"m 110 0 l 110 999 l 246 999 l 246 0 l 110 0 "},"G":{"x_min":64,"x_max":973,"ha":1061,"o":"m 855 132 q 710 12 794 52 q 518 -28 626 -28 q 189 116 315 -28 q 64 497 64 261 q 194 883 64 742 q 547 1025 324 1025 q 826 938 718 1025 q 956 697 934 851 l 824 697 q 733 853 805 798 q 547 908 661 908 q 293 801 383 908 q 204 502 204 695 q 292 202 204 310 q 538 95 381 95 q 763 181 679 95 q 848 413 848 267 l 848 426 l 534 426 l 534 539 l 973 539 l 973 0 l 884 0 l 855 132 "},"`":{"x_min":170,"x_max":445,"ha":694,"o":"m 445 825 l 363 825 l 170 1061 l 306 1061 l 445 825 "},"·":{"x_min":107,"x_max":275,"ha":380,"o":"m 107 475 q 131 534 107 510 q 190 559 155 559 q 250 534 225 559 q 275 475 275 510 q 250 417 275 441 q 190 393 225 393 q 131 417 155 393 q 107 475 107 441 "},"¿":{"x_min":82,"x_max":679,"ha":729,"o":"m 449 729 q 449 713 449 723 q 450 698 450 703 q 425 566 450 624 q 342 453 400 508 l 290 400 q 231 320 249 359 q 214 233 214 282 q 258 124 214 166 q 375 83 302 83 q 509 137 463 83 q 558 303 554 191 l 679 303 l 679 285 q 598 55 679 136 q 369 -26 517 -26 q 160 45 239 -26 q 82 235 82 117 q 107 353 82 298 q 184 457 133 408 l 241 511 q 311 600 294 561 q 328 694 328 638 q 328 715 328 708 q 328 729 328 722 l 449 729 m 453 999 l 453 848 l 317 848 l 317 999 l 453 999 "},"ý":{"x_min":14,"x_max":689,"ha":704,"o":"m 552 726 l 689 726 l 383 -113 q 295 -268 339 -231 q 168 -305 251 -305 q 132 -301 150 -305 q 96 -293 114 -298 l 96 -177 q 131 -185 114 -182 q 167 -188 149 -188 q 224 -173 202 -188 q 257 -128 245 -159 l 289 -41 l 14 726 l 150 726 l 351 138 l 552 726 m 255 825 l 393 1061 l 530 1061 l 336 825 l 255 825 "},"º":{"x_min":35,"x_max":571,"ha":606,"o":"m 75 386 l 530 386 l 530 310 l 75 310 l 75 386 m 305 939 q 184 891 225 939 q 144 751 144 843 q 185 609 144 658 q 305 561 226 561 q 423 610 382 561 q 464 751 464 659 q 423 891 464 843 q 305 939 382 939 m 35 750 q 106 952 35 879 q 302 1025 177 1025 q 500 952 429 1025 q 571 750 571 879 q 500 547 571 620 q 304 475 430 475 q 105 547 176 475 q 35 750 35 619 "},"∞":{"x_min":150,"x_max":1009,"ha":1157,"o":"m 620 378 q 699 288 654 319 q 801 258 744 258 q 913 303 870 258 q 957 421 957 349 q 917 535 957 489 q 816 580 877 580 q 716 534 761 580 q 620 378 671 488 m 538 451 q 459 541 504 511 q 357 571 414 571 q 245 526 288 571 q 202 409 202 481 q 241 295 202 340 q 342 250 281 250 q 443 296 397 250 q 538 451 488 342 m 586 327 q 485 192 538 235 q 368 150 432 150 q 213 225 276 150 q 150 413 150 301 q 206 605 150 532 q 354 679 263 679 q 470 636 418 679 q 571 499 522 593 q 671 637 617 593 q 790 682 724 682 q 945 606 881 682 q 1009 416 1009 529 q 952 225 1009 297 q 804 152 895 152 q 690 192 740 152 q 586 327 639 233 "},";":{"x_min":136,"x_max":276,"ha":412,"o":"m 136 576 l 136 726 l 276 726 l 276 576 l 136 576 m 136 0 l 136 150 l 276 150 l 276 -12 q 239 -138 276 -87 q 136 -205 202 -188 l 136 -135 q 186 -98 168 -129 q 205 -20 205 -68 l 205 0 l 136 0 "},"6":{"x_min":46,"x_max":722,"ha":762,"o":"m 587 294 q 535 444 587 388 q 398 501 483 501 q 249 445 303 501 q 195 292 195 389 q 249 138 195 195 q 394 82 303 82 q 534 140 481 82 q 587 294 587 198 m 714 704 l 586 704 q 535 818 579 779 q 412 858 490 858 q 249 771 306 858 q 184 508 193 684 q 283 587 225 560 q 413 615 341 615 q 636 527 551 615 q 722 295 722 439 q 631 61 722 151 q 394 -28 540 -28 q 135 89 225 -28 q 46 427 46 207 q 141 829 46 687 q 410 971 237 971 q 626 901 547 971 q 714 704 705 832 "},"n":{"x_min":93,"x_max":700,"ha":790,"o":"m 577 0 l 577 446 q 544 594 577 553 q 430 636 511 636 q 271 578 328 636 q 215 413 215 520 l 215 0 l 93 0 l 93 726 l 209 726 l 209 620 q 309 714 251 683 q 442 745 366 745 q 581 720 525 745 q 668 645 637 695 q 692 583 685 619 q 700 470 700 548 l 700 435 l 700 0 l 577 0 "},"¤":{"x_min":-20,"x_max":730,"ha":762,"o":"m 597 368 l 730 367 q 634 79 725 186 q 397 -28 544 -28 q 168 82 252 -28 q 73 398 84 192 l -2 398 l 24 460 l 69 460 l 69 538 l -20 538 l 6 600 l 73 600 q 172 916 84 808 q 416 1025 259 1025 q 629 938 547 1025 q 725 699 711 852 l 591 699 q 532 857 579 803 q 406 911 485 911 q 262 834 311 911 q 206 600 213 758 l 511 600 l 484 538 l 204 538 l 204 460 l 448 460 l 422 398 l 206 398 q 261 163 212 240 q 405 86 310 86 q 542 160 491 86 q 597 368 592 234 "},"∂":{"x_min":71,"x_max":652,"ha":718,"o":"m 513 421 q 528 535 523 480 q 533 641 533 591 q 508 773 533 729 q 435 818 484 818 q 349 778 397 818 q 275 739 300 739 q 235 754 251 739 q 219 790 219 769 q 267 865 219 832 q 385 899 316 899 q 579 793 507 899 q 652 510 652 688 q 554 132 652 282 q 311 -17 456 -17 q 139 56 208 -17 q 71 240 71 129 q 145 461 71 374 q 330 549 220 549 q 443 518 399 549 q 513 421 487 487 m 480 335 q 450 456 480 414 q 367 499 421 499 q 245 411 293 499 q 198 183 198 323 q 227 62 198 104 q 310 21 256 21 q 432 109 384 21 q 480 335 480 197 "},"p":{"x_min":96,"x_max":770,"ha":825,"o":"m 211 358 q 264 155 211 223 q 426 87 318 87 q 586 161 530 87 q 642 373 642 236 q 583 568 642 497 q 425 640 525 640 q 266 566 322 640 q 211 358 211 493 m 96 -290 l 96 726 l 215 726 l 215 623 q 317 719 260 688 q 451 750 373 750 q 683 645 597 750 q 770 365 770 541 q 682 83 770 188 q 450 -22 594 -22 q 315 5 373 -22 q 215 89 257 33 l 215 -290 l 96 -290 "},"‡":{"x_min":40,"x_max":655,"ha":694,"o":"m 289 -147 l 289 127 l 40 127 l 40 231 l 289 231 l 289 618 l 40 618 l 40 724 l 289 724 l 289 999 l 406 999 l 406 724 l 655 724 l 655 618 l 406 618 l 406 231 l 655 231 l 655 127 l 406 127 l 406 -147 l 289 -147 "},"√":{"x_min":41,"x_max":885,"ha":885,"o":"m 756 1126 l 885 1126 l 885 1061 l 806 1061 l 403 -28 l 359 -28 l 142 570 l 57 540 l 41 594 l 233 661 l 406 180 l 756 1126 "},"S":{"x_min":61,"x_max":836,"ha":897,"o":"m 61 329 l 192 329 q 264 156 194 220 q 451 92 334 92 q 634 140 567 92 q 701 273 701 189 q 450 447 701 388 q 427 453 435 451 q 158 560 223 501 q 93 729 93 619 q 190 943 93 862 q 450 1025 288 1025 q 710 939 615 1025 q 807 706 805 854 l 677 705 q 609 859 670 805 q 441 913 547 913 q 282 869 342 913 q 223 752 223 825 q 469 579 223 636 q 525 566 505 571 l 539 562 q 753 479 701 524 q 814 397 793 445 q 836 289 836 348 q 732 59 836 144 q 452 -26 629 -26 q 169 65 271 -26 q 61 329 68 157 "},"/":{"x_min":-1,"x_max":419,"ha":418,"o":"m -1 -129 l 333 1025 l 419 1025 l 82 -129 l -1 -129 "},"y":{"x_min":14,"x_max":689,"ha":704,"o":"m 552 726 l 689 726 l 383 -113 q 295 -268 339 -231 q 168 -305 251 -305 q 132 -301 150 -305 q 96 -293 114 -298 l 96 -177 q 131 -185 114 -182 q 167 -188 149 -188 q 224 -173 202 -188 q 257 -128 245 -159 l 289 -41 l 14 726 l 150 726 l 351 138 l 552 726 "},"≈":{"x_min":121,"x_max":1038,"ha":1157,"o":"m 1038 292 q 902 219 966 242 q 774 196 838 196 q 580 242 709 196 q 382 288 451 288 q 265 263 326 288 q 121 180 205 239 l 121 286 q 259 360 194 336 q 383 385 324 385 q 590 338 461 385 q 775 292 719 292 q 895 316 835 292 q 1038 397 955 340 l 1038 292 m 1038 542 q 902 469 966 492 q 774 446 838 446 q 580 492 709 446 q 382 539 451 539 q 265 514 325 539 q 121 431 205 489 l 121 537 q 258 610 192 586 q 383 635 323 635 q 590 588 462 635 q 775 542 719 542 q 894 565 834 542 q 1038 648 953 589 l 1038 542 "},"g":{"x_min":58,"x_max":733,"ha":827,"o":"m 399 640 q 240 568 296 640 q 185 362 185 496 q 242 158 185 231 q 400 86 299 86 q 565 152 512 86 q 619 357 619 219 q 563 568 619 497 q 399 640 508 640 m 614 88 q 514 4 572 32 q 384 -24 457 -24 q 147 82 237 -24 q 58 365 58 189 q 147 644 58 539 q 385 750 237 750 q 512 722 457 750 q 613 634 566 695 l 613 726 l 733 726 l 733 15 q 652 -227 733 -152 q 394 -302 572 -302 q 168 -245 249 -302 q 87 -90 87 -189 l 87 -85 l 206 -85 l 206 -87 q 253 -171 206 -143 q 398 -200 301 -200 q 564 -155 513 -200 q 614 -11 614 -111 l 614 88 "},"²":{"x_min":27,"x_max":464,"ha":503,"o":"m 27 378 l 27 383 q 72 524 27 466 q 229 637 117 582 l 284 664 q 354 719 332 688 q 377 788 377 749 q 342 863 377 835 q 250 892 308 892 q 157 855 191 892 q 124 756 124 819 l 124 750 l 41 750 l 41 759 q 98 906 41 852 q 253 960 155 960 q 406 912 348 960 q 464 787 464 865 q 430 683 464 728 q 326 605 397 639 l 272 580 q 164 515 199 545 q 118 451 129 486 l 464 451 l 464 378 l 27 378 "},"ë":{"x_min":58,"x_max":712,"ha":760,"o":"m 185 429 l 584 429 q 532 585 583 530 q 387 641 481 641 q 245 586 297 641 q 185 429 193 532 m 581 234 l 702 234 q 597 45 682 114 q 384 -24 512 -24 q 145 77 232 -24 q 58 355 58 179 q 144 645 58 541 q 383 750 231 750 q 626 653 540 750 q 712 381 712 557 q 711 348 712 358 q 710 327 711 337 l 185 327 q 242 149 187 212 q 395 87 297 87 q 518 125 469 87 q 581 234 566 163 m 438 864 l 438 1007 l 561 1007 l 561 864 l 438 864 m 215 864 l 215 1007 l 338 1007 l 338 864 l 215 864 "},"–":{"x_min":0,"x_max":694,"ha":694,"o":"m 0 330 l 0 404 l 694 404 l 694 330 l 0 330 "},"ƒ":{"x_min":-24,"x_max":704,"ha":762,"o":"m -24 -255 l 8 -146 q 48 -165 27 -159 q 90 -172 69 -172 q 164 -132 139 -172 q 213 38 189 -92 l 307 543 l 164 543 l 164 643 l 327 643 q 422 941 364 858 q 583 1025 479 1025 q 643 1017 613 1025 q 704 994 673 1010 l 672 891 q 630 908 649 902 q 594 914 611 914 q 514 863 541 914 q 458 643 486 813 l 613 643 l 613 543 l 440 543 l 356 95 q 258 -207 315 -127 q 96 -287 201 -287 q 36 -279 65 -287 q -24 -255 6 -271 "},"J":{"x_min":25,"x_max":604,"ha":701,"o":"m 26 324 l 156 324 q 155 308 155 316 q 155 282 155 299 q 192 139 155 183 q 312 95 229 95 q 398 113 364 95 q 451 170 432 131 q 464 221 460 188 q 468 332 468 254 l 468 999 l 604 999 l 604 277 q 533 48 604 122 q 315 -26 462 -26 q 97 50 170 -26 q 25 281 25 127 q 25 307 25 298 q 26 324 25 316 "},"Ã":{"x_min":-4,"x_max":889,"ha":885,"o":"m 284 415 l 596 415 l 441 855 l 284 415 m -4 0 l 366 999 l 516 999 l 889 0 l 741 0 l 636 298 l 242 298 l 136 0 l -4 0 m 642 1273 q 594 1168 628 1204 q 508 1133 560 1133 q 488 1134 499 1133 q 464 1139 477 1136 l 398 1157 q 381 1161 390 1160 q 365 1163 373 1163 q 329 1151 345 1163 q 305 1117 314 1139 l 245 1117 q 291 1219 257 1183 q 375 1255 324 1255 q 397 1253 387 1255 q 415 1249 407 1252 l 482 1230 q 501 1226 492 1227 q 518 1225 510 1225 q 557 1237 541 1225 q 582 1273 572 1249 l 642 1273 "},"©":{"x_min":79,"x_max":1079,"ha":1157,"o":"m 714 615 q 669 695 705 667 q 575 724 633 724 q 463 662 504 724 q 423 493 423 601 q 464 327 423 386 q 582 268 506 268 q 674 299 637 268 q 721 387 711 331 l 819 387 q 746 244 812 299 q 577 189 679 189 q 384 270 454 189 q 314 497 314 351 q 387 715 314 632 q 581 799 461 799 q 742 748 678 799 q 813 615 806 697 l 714 615 m 1014 492 q 981 659 1014 580 q 888 799 949 738 q 746 894 825 861 q 579 927 668 927 q 414 895 492 927 q 275 802 336 863 q 177 658 211 739 q 144 492 144 578 q 177 328 144 406 q 273 186 210 249 q 414 91 335 124 q 579 59 492 59 q 744 92 664 59 q 888 188 823 125 q 982 325 950 248 q 1014 492 1014 403 m 577 993 q 771 956 680 993 q 933 847 861 919 q 1041 685 1003 777 q 1079 493 1079 593 q 1042 302 1079 391 q 934 142 1005 212 q 767 31 859 70 q 577 -7 676 -7 q 388 30 479 -7 q 226 141 298 68 q 116 303 154 212 q 79 493 79 393 q 116 683 79 592 q 227 848 154 775 q 387 956 298 919 q 577 993 477 993 "},"˘":{"x_min":150,"x_max":545,"ha":694,"o":"m 150 1037 l 223 1037 q 256 965 226 988 q 347 943 286 943 q 438 965 408 943 q 471 1037 468 988 l 545 1037 q 490 893 537 939 q 347 848 442 848 q 204 893 252 848 q 150 1037 157 939 "},"≥":{"x_min":178,"x_max":981,"ha":1157,"o":"m 981 110 l 981 16 l 178 16 l 178 110 l 981 110 m 981 550 l 981 467 l 178 200 l 178 301 l 814 508 l 178 718 l 178 818 l 981 550 "},"D":{"x_min":107,"x_max":918,"ha":982,"o":"m 476 884 l 243 884 l 243 122 l 476 122 q 702 219 625 122 q 779 507 779 316 q 701 786 779 689 q 476 884 623 884 m 107 0 l 107 999 l 487 999 q 807 874 696 999 q 918 514 918 749 q 803 135 918 270 q 482 0 688 0 l 107 0 "},"ÿ":{"x_min":14,"x_max":689,"ha":704,"o":"m 552 726 l 689 726 l 383 -113 q 295 -268 339 -231 q 168 -305 251 -305 q 132 -301 150 -305 q 96 -293 114 -298 l 96 -177 q 131 -185 114 -182 q 167 -188 149 -188 q 224 -173 202 -188 q 257 -128 245 -159 l 289 -41 l 14 726 l 150 726 l 351 138 l 552 726 m 402 864 l 402 1007 l 525 1007 l 525 864 l 402 864 m 179 864 l 179 1007 l 302 1007 l 302 864 l 179 864 "},"ł":{"x_min":-24,"x_max":346,"ha":321,"o":"m 98 0 l 98 422 l 23 365 l -24 429 l 98 522 l 98 999 l 222 999 l 222 594 l 296 651 l 346 587 l 222 494 l 222 0 l 98 0 "},"Ł":{"x_min":-36,"x_max":748,"ha":749,"o":"m 113 0 l 113 400 l 17 327 l -36 398 l 113 511 l 113 999 l 251 999 l 251 594 l 495 777 l 549 706 l 251 482 l 251 126 l 748 126 l 748 0 l 113 0 "},"$":{"x_min":42,"x_max":719,"ha":762,"o":"m 415 76 q 546 128 500 84 q 592 247 592 173 q 550 354 592 314 q 415 416 508 394 l 415 76 m 344 555 l 344 860 q 226 818 270 860 q 183 708 183 777 q 222 606 183 643 q 344 555 261 568 m 344 -151 l 344 -26 q 117 61 193 -14 q 42 278 42 137 l 42 293 l 162 293 l 162 282 q 209 138 162 191 q 344 81 257 86 l 344 434 q 132 523 203 457 q 62 698 62 589 q 137 887 62 814 q 344 966 213 959 l 344 1061 l 415 1061 l 415 966 q 621 888 549 955 q 694 708 692 822 l 573 708 q 525 816 564 779 q 415 858 485 854 l 415 544 q 651 443 584 507 q 719 262 719 380 q 640 65 719 140 q 415 -24 561 -9 l 415 -151 l 344 -151 "},"w":{"x_min":10,"x_max":1002,"ha":1011,"o":"m 227 0 l 10 726 l 136 726 l 290 170 l 434 726 l 576 726 l 717 170 l 876 726 l 1002 726 l 781 0 l 658 0 l 504 559 l 350 0 l 227 0 "},"\\":{"x_min":-1,"x_max":419,"ha":418,"o":"m 333 -129 l -1 1025 l 82 1025 l 419 -129 l 333 -129 "},"∫":{"x_min":32,"x_max":690,"ha":724,"o":"m 210 -178 q 291 288 282 -178 q 294 400 293 361 q 366 900 302 749 q 567 1051 430 1051 q 656 1022 622 1051 q 690 949 690 993 q 668 891 690 912 q 609 870 646 870 q 561 882 580 870 q 534 919 542 895 q 527 954 530 929 q 513 979 524 979 q 431 559 440 979 q 426 353 428 428 q 350 -111 414 28 q 153 -252 286 -252 q 66 -223 100 -252 q 32 -151 32 -195 q 55 -92 32 -113 q 119 -71 78 -71 q 157 -80 141 -71 q 184 -109 174 -90 q 194 -149 191 -121 q 210 -178 197 -178 "},"Ì":{"x_min":2,"x_max":277,"ha":357,"o":"m 110 0 l 110 999 l 246 999 l 246 0 l 110 0 m 277 1086 l 195 1086 l 2 1322 l 138 1322 l 277 1086 "},"Ç":{"x_min":64,"x_max":937,"ha":990,"o":"m 805 371 l 937 371 q 821 92 930 201 q 534 -28 712 -15 l 534 -75 l 552 -75 q 659 -102 621 -75 q 697 -181 697 -130 q 656 -271 697 -241 q 536 -301 616 -301 q 457 -294 500 -301 q 369 -275 415 -288 l 367 -212 q 464 -230 420 -224 q 533 -237 508 -237 q 586 -224 568 -237 q 605 -186 605 -211 q 585 -146 605 -159 q 524 -133 565 -133 q 503 -133 512 -133 q 486 -133 494 -133 l 486 -28 q 175 127 286 -15 q 64 514 64 269 q 189 886 64 747 q 528 1025 315 1025 q 806 936 698 1025 q 930 699 915 848 l 797 699 q 707 850 778 797 q 523 904 637 904 q 286 797 370 904 q 203 497 203 691 q 290 203 203 314 q 521 93 377 93 q 722 169 644 93 q 805 371 800 246 "},"C":{"x_min":64,"x_max":937,"ha":990,"o":"m 805 371 l 937 371 q 812 80 928 188 q 514 -28 697 -28 q 183 115 303 -28 q 64 514 64 259 q 189 886 64 748 q 527 1025 314 1025 q 804 937 696 1025 q 930 699 913 850 l 797 699 q 706 850 778 797 q 522 904 635 904 q 286 797 370 904 q 203 497 203 691 q 290 203 203 314 q 520 93 377 93 q 721 169 643 93 q 805 371 799 245 "},"!":{"x_min":154,"x_max":290,"ha":446,"o":"m 187 242 l 154 673 l 154 999 l 290 999 l 290 673 l 258 242 l 187 242 m 154 0 l 154 149 l 290 149 l 290 0 l 154 0 "},"ç":{"x_min":54,"x_max":697,"ha":729,"o":"m 575 485 q 521 599 569 559 q 388 640 472 640 q 235 569 289 640 q 182 365 182 498 q 233 160 182 232 q 380 89 284 89 q 516 133 464 89 q 580 261 567 177 l 697 261 q 610 61 691 137 q 399 -22 530 -15 l 399 -75 l 416 -75 q 523 -102 485 -75 q 561 -181 561 -130 q 520 -271 561 -241 q 398 -301 479 -301 q 321 -294 364 -301 q 232 -275 279 -288 l 232 -212 q 328 -230 285 -224 q 397 -237 371 -237 q 450 -224 431 -237 q 469 -186 469 -211 q 448 -146 469 -160 q 387 -133 428 -133 q 366 -133 375 -133 q 349 -133 357 -133 l 349 -22 q 132 93 211 -9 q 54 360 54 195 q 143 645 54 541 q 388 750 233 750 q 607 677 525 750 q 693 485 690 605 l 575 485 "},"È":{"x_min":107,"x_max":831,"ha":888,"o":"m 107 0 l 107 999 l 819 999 l 819 875 l 241 875 l 241 577 l 775 577 l 775 460 l 241 460 l 241 125 l 831 125 l 831 0 l 107 0 m 555 1086 l 473 1086 l 280 1322 l 416 1322 l 555 1086 "},"X":{"x_min":0,"x_max":840,"ha":840,"o":"m 0 0 l 343 511 l 18 999 l 184 999 l 422 629 l 663 999 l 822 999 l 497 514 l 840 0 l 673 0 l 416 404 l 165 0 l 0 0 "},"ô":{"x_min":56,"x_max":752,"ha":807,"o":"m 181 364 q 239 158 181 229 q 404 87 297 87 q 569 158 512 87 q 626 364 626 229 q 569 569 626 498 q 404 641 512 641 q 238 569 296 641 q 181 364 181 498 m 56 364 q 147 648 56 546 q 403 750 238 750 q 660 648 568 750 q 752 364 752 547 q 660 79 752 181 q 404 -22 569 -22 q 147 79 239 -22 q 56 364 56 180 m 204 825 l 337 1061 l 470 1061 l 604 825 l 520 825 l 404 978 l 286 825 l 204 825 "},"đ":{"x_min":56,"x_max":830,"ha":829,"o":"m 728 999 l 728 903 l 830 903 l 830 827 l 728 827 l 728 0 l 609 0 l 609 92 q 504 6 563 35 q 373 -22 445 -22 q 142 82 228 -22 q 56 360 56 186 q 142 644 56 539 q 373 750 229 750 q 508 721 449 750 q 609 637 567 693 l 609 827 l 376 827 l 376 903 l 609 903 l 609 999 l 728 999 m 614 368 q 560 571 614 503 q 399 640 506 640 q 238 565 295 640 q 182 353 182 490 q 240 158 182 229 q 400 87 299 87 q 558 160 502 87 q 614 368 614 233 "},"}":{"x_min":108,"x_max":582,"ha":694,"o":"m 390 758 l 390 592 q 426 451 390 492 q 551 410 463 410 q 566 411 556 410 q 582 412 576 412 l 582 310 q 567 310 577 310 q 552 311 556 311 q 426 270 463 311 q 390 128 390 229 l 390 -36 q 374 -180 390 -137 q 322 -246 359 -223 q 252 -272 293 -264 q 137 -280 210 -280 l 108 -280 l 108 -178 l 134 -178 q 244 -147 215 -178 q 273 -23 273 -117 l 273 139 q 303 294 273 248 q 409 359 333 340 q 303 426 333 380 q 273 581 273 472 l 273 745 q 244 869 273 839 q 134 900 215 900 l 108 900 l 108 1002 l 133 1002 q 249 993 205 1002 q 322 966 292 985 q 374 901 359 943 q 390 758 390 858 "},"â":{"x_min":49,"x_max":735,"ha":754,"o":"m 542 96 q 421 7 485 37 q 285 -22 357 -22 q 111 35 173 -22 q 49 196 49 93 q 110 351 49 295 q 297 424 171 407 q 383 433 329 427 q 497 451 476 442 q 525 473 518 459 q 532 530 532 486 q 491 613 532 585 q 368 641 450 641 q 240 607 283 641 q 197 507 197 573 l 82 507 l 82 512 q 159 686 82 622 q 372 750 236 750 q 587 695 518 750 q 656 524 656 640 l 656 161 q 666 100 656 114 q 702 87 676 87 q 716 88 708 87 q 735 91 724 89 l 735 -2 q 696 -11 712 -9 q 664 -14 679 -14 q 572 12 603 -14 q 542 92 542 38 l 542 96 m 531 369 q 363 328 482 343 q 300 320 321 323 q 204 280 233 309 q 175 197 175 252 q 208 114 175 143 q 306 85 242 85 q 467 134 404 85 q 531 261 531 184 l 531 369 m 178 825 l 311 1061 l 444 1061 l 578 825 l 494 825 l 378 978 l 260 825 l 178 825 "},"ø":{"x_min":36.1875,"x_max":768.953125,"ha":807,"o":"m 234 147 q 306 97 266 113 q 399 81 346 81 q 567 151 509 81 q 625 355 625 221 q 617 455 625 411 q 597 530 610 499 l 234 147 m 564 577 q 493 629 534 611 q 400 647 451 647 q 231 576 287 647 q 175 364 175 505 q 181 266 175 306 q 204 196 188 227 l 564 577 m 36 5 l 126 106 q 73 216 90 154 q 56 362 56 279 q 147 647 56 545 q 403 750 239 750 q 535 728 478 750 q 641 663 593 707 l 724 755 l 768 716 l 683 620 q 735 508 718 569 q 752 364 752 448 q 660 79 752 181 q 404 -22 568 -22 q 270 -2 327 -22 q 166 61 214 17 l 81 -31 l 36 5 "},"Ä":{"x_min":-4,"x_max":889,"ha":885,"o":"m 284 415 l 596 415 l 441 855 l 284 415 m -4 0 l 366 999 l 516 999 l 889 0 l 741 0 l 636 298 l 242 298 l 136 0 l -4 0 m 493 1125 l 493 1268 l 616 1268 l 616 1125 l 493 1125 m 270 1125 l 270 1268 l 393 1268 l 393 1125 l 270 1125 "},"‰":{"x_min":49,"x_max":1706,"ha":1754,"o":"m 1327 241 q 1366 142 1327 182 q 1465 102 1406 102 q 1563 142 1522 102 q 1604 241 1604 183 q 1563 339 1604 299 q 1465 380 1523 380 q 1367 339 1407 380 q 1327 241 1327 299 m 1225 241 q 1294 412 1225 342 q 1465 482 1364 482 q 1634 411 1563 482 q 1706 241 1706 341 q 1635 70 1706 141 q 1465 0 1564 0 q 1294 70 1364 0 q 1225 241 1225 140 m 748 241 q 787 142 748 182 q 886 102 827 102 q 984 142 943 102 q 1025 241 1025 183 q 984 339 1025 299 q 886 380 944 380 q 788 339 828 380 q 748 241 748 299 m 646 241 q 715 412 646 342 q 886 482 785 482 q 1055 411 984 482 q 1127 241 1127 341 q 1056 70 1127 141 q 886 0 985 0 q 715 70 785 0 q 646 241 646 140 m 151 702 q 190 603 151 643 q 289 563 230 563 q 387 603 346 563 q 428 702 428 644 q 387 800 428 760 q 289 841 346 841 q 191 800 231 841 q 151 702 151 760 m 49 702 q 118 873 49 803 q 289 943 188 943 q 459 872 389 943 q 530 702 530 802 q 459 531 530 602 q 289 461 389 461 q 118 531 188 461 q 49 702 49 601 m 248 -27 l 844 970 l 929 970 l 332 -27 l 248 -27 "},"N":{"x_min":106,"x_max":896,"ha":1002,"o":"m 106 0 l 106 999 l 254 999 l 720 273 q 747 228 736 249 q 766 189 759 207 l 766 999 l 896 999 l 896 0 l 748 0 l 272 735 q 252 771 261 752 q 235 809 243 789 l 235 0 l 106 0 "},"—":{"x_min":0,"x_max":1389,"ha":1389,"o":"m 0 404 l 1389 404 l 1389 330 l 0 330 l 0 404 "},"2":{"x_min":43,"x_max":704,"ha":762,"o":"m 43 0 l 43 8 q 111 244 43 148 q 348 432 179 340 l 430 477 q 537 567 503 517 q 572 684 572 618 q 519 809 572 762 q 380 856 467 856 q 241 796 291 856 q 191 631 191 736 l 191 620 l 64 620 l 64 637 q 150 881 64 791 q 386 971 237 971 q 616 891 529 971 q 704 683 704 812 q 653 508 704 582 q 495 378 602 434 l 413 337 q 250 229 302 279 q 182 119 199 179 l 704 119 l 704 0 l 43 0 "},"ü":{"x_min":90,"x_max":697,"ha":790,"o":"m 213 726 l 213 281 q 246 132 213 174 q 360 91 280 91 q 520 152 466 91 q 575 335 575 214 l 575 726 l 697 726 l 697 0 l 580 0 l 580 109 q 482 13 542 45 q 340 -18 421 -18 q 208 7 264 -18 q 121 81 151 33 q 97 143 104 107 q 90 256 90 178 l 90 290 l 90 726 l 213 726 m 446 864 l 446 1007 l 569 1007 l 569 864 l 446 864 m 223 864 l 223 1007 l 346 1007 l 346 864 l 223 864 "},"":{"x_min":0,"x_max":587,"ha":676,"o":"m 119 0 l 119 629 l 0 629 l 0 726 l 119 726 l 119 833 q 160 968 119 922 q 283 1014 201 1014 q 316 1011 296 1014 q 372 1004 336 1009 l 372 894 q 339 899 352 897 q 317 901 325 901 q 257 877 274 901 q 241 787 241 853 l 241 726 l 372 726 l 372 629 l 241 629 l 241 0 l 119 0 m 465 0 l 465 999 l 587 999 l 587 0 l 465 0 "},"Ó":{"x_min":64,"x_max":1010,"ha":1074,"o":"m 204 498 q 292 198 204 306 q 538 90 381 90 q 782 198 694 90 q 870 498 870 306 q 782 799 870 691 q 538 907 694 907 q 292 799 381 907 q 204 498 204 691 m 64 498 q 189 885 64 746 q 538 1025 315 1025 q 884 885 759 1025 q 1010 498 1010 746 q 884 111 1010 250 q 538 -28 759 -28 q 189 111 315 -28 q 64 498 64 250 m 441 1086 l 579 1322 l 716 1322 l 522 1086 l 441 1086 "},"˜":{"x_min":149,"x_max":546,"ha":694,"o":"m 546 1012 q 498 907 532 943 q 412 872 464 872 q 392 873 403 872 q 368 878 381 875 l 302 896 q 285 900 294 899 q 269 902 277 902 q 233 890 249 902 q 209 856 218 878 l 149 856 q 195 958 161 922 q 279 994 228 994 q 301 992 291 994 q 319 988 311 991 l 386 969 q 405 965 396 966 q 422 964 414 964 q 461 976 445 964 q 486 1012 476 988 l 546 1012 "},"ˇ":{"x_min":147,"x_max":547,"ha":694,"o":"m 147 1061 l 229 1061 l 347 906 l 463 1061 l 547 1061 l 413 825 l 280 825 l 147 1061 "},"Ÿ":{"x_min":-12,"x_max":851,"ha":838,"o":"m 495 0 l 359 0 l 359 400 l -12 999 l 158 999 l 425 526 l 691 999 l 851 999 l 495 409 l 495 0 m 469 1125 l 469 1268 l 592 1268 l 592 1125 l 469 1125 m 246 1125 l 246 1268 l 369 1268 l 369 1125 l 246 1125 "},"€":{"x_min":-20,"x_max":730,"ha":762,"o":"m 597 368 l 730 367 q 634 79 725 186 q 397 -28 544 -28 q 168 82 252 -28 q 73 398 84 192 l -2 398 l 24 460 l 69 460 l 69 538 l -20 538 l 6 600 l 73 600 q 172 916 84 808 q 416 1025 259 1025 q 629 938 547 1025 q 725 699 711 852 l 591 699 q 532 857 579 803 q 406 911 485 911 q 262 834 311 911 q 206 600 213 758 l 511 600 l 484 538 l 204 538 l 204 460 l 448 460 l 422 398 l 206 398 q 261 163 212 240 q 405 86 310 86 q 542 160 491 86 q 597 368 592 234 "},"ß":{"x_min":93,"x_max":695,"ha":749,"o":"m 93 0 l 93 711 q 165 935 93 858 q 376 1013 238 1013 q 575 944 500 1013 q 650 760 650 875 q 622 633 650 685 q 542 556 595 581 q 654 468 614 532 q 695 315 695 404 q 611 70 695 165 q 397 -24 527 -24 q 365 -21 384 -24 q 315 -13 346 -19 l 315 99 q 346 93 332 95 q 374 91 361 91 q 513 149 459 91 q 567 300 567 207 q 512 443 567 397 q 346 490 458 490 l 325 490 l 325 591 l 346 591 q 481 631 435 591 q 527 750 527 671 q 485 863 527 821 q 374 906 444 906 q 252 854 291 906 q 214 693 214 803 l 214 0 l 93 0 "},"s":{"x_min":44,"x_max":638,"ha":689,"o":"m 44 236 l 161 236 q 214 124 167 162 q 346 87 260 87 q 470 117 425 87 q 516 201 516 148 q 493 263 516 241 q 404 299 470 284 l 268 335 q 108 408 153 362 q 63 539 63 454 q 135 692 63 635 q 335 749 208 749 q 541 688 464 749 q 618 526 618 628 l 618 524 l 499 524 q 451 613 494 581 q 335 645 409 645 q 223 619 261 645 q 185 543 185 593 q 209 488 185 508 q 298 453 233 468 l 416 425 q 590 349 542 395 q 638 216 638 302 q 558 40 638 103 q 335 -22 478 -22 q 120 44 195 -22 q 44 236 46 110 "},"?":{"x_min":50,"x_max":647,"ha":729,"o":"m 281 268 q 280 282 281 272 q 279 297 279 292 q 304 429 279 371 q 387 544 329 487 l 440 597 q 499 677 481 638 q 517 763 517 715 q 472 874 517 832 q 355 916 428 916 q 219 861 265 916 q 170 696 174 806 l 50 696 l 50 714 q 131 943 50 862 q 360 1025 212 1025 q 568 953 490 1025 q 647 763 647 881 q 621 644 647 699 q 546 540 596 588 l 489 486 q 418 397 436 436 q 401 302 401 358 q 401 281 401 289 q 403 268 402 274 l 281 268 m 277 0 l 277 149 l 413 149 l 413 0 l 277 0 "},"c":{"x_min":56,"x_max":698,"ha":729,"o":"m 576 485 q 521 599 570 559 q 389 640 473 640 q 236 568 290 640 q 182 365 182 497 q 233 160 182 232 q 380 89 285 89 q 517 133 466 89 q 581 261 568 177 l 698 261 q 603 52 688 127 q 375 -22 518 -22 q 141 80 226 -22 q 56 360 56 182 q 144 646 56 543 q 389 750 233 750 q 609 678 526 750 q 697 485 691 607 l 576 485 "},"¶":{"x_min":45,"x_max":651,"ha":694,"o":"m 651 945 l 570 945 l 570 0 l 493 0 l 493 945 l 374 945 l 374 0 l 297 0 l 297 530 q 113 599 181 535 q 45 766 45 663 q 117 937 45 872 q 311 1003 190 1003 l 651 1003 l 651 945 "},"•":{"x_min":208,"x_max":609,"ha":819,"o":"m 208 516 q 266 657 208 599 q 409 716 325 716 q 550 657 491 716 q 609 516 609 598 q 549 374 609 433 q 407 315 490 315 q 266 373 324 315 q 208 516 208 432 "},"(":{"x_min":136,"x_max":450,"ha":467,"o":"m 362 -288 q 191 26 246 -132 q 136 359 136 184 q 191 692 136 534 q 362 1007 246 851 l 450 1007 q 306 682 353 842 q 259 359 259 522 q 306 36 259 196 q 450 -288 353 -123 l 362 -288 "},"◊":{"x_min":4,"x_max":682,"ha":686,"o":"m 343 956 l 81 402 l 343 -157 l 604 402 l 343 956 m 343 1122 l 682 402 l 343 -323 l 4 402 l 343 1122 "},"­":{"x_min":49,"x_max":385,"ha":433,"o":"m 49 313 l 49 423 l 385 423 l 385 313 l 49 313 "},":":{"x_min":136,"x_max":276,"ha":412,"o":"m 136 576 l 136 726 l 276 726 l 276 576 l 136 576 m 136 0 l 136 151 l 276 151 l 276 0 l 136 0 "},"Û":{"x_min":102,"x_max":884,"ha":985,"o":"m 102 379 l 102 999 l 238 999 l 238 377 q 300 170 238 237 q 492 103 362 103 q 684 171 621 103 q 748 377 748 239 l 748 999 l 884 999 l 884 379 q 780 75 884 178 q 476 -28 677 -28 q 195 73 289 -28 q 102 379 102 175 m 293 1086 l 426 1322 l 559 1322 l 693 1086 l 609 1086 l 493 1239 l 375 1086 l 293 1086 "},"V":{"x_min":0,"x_max":848,"ha":848,"o":"m 355 0 l 0 999 l 140 999 l 427 162 l 706 999 l 848 999 l 497 0 l 355 0 "}," ":{"x_min":0,"x_max":0,"ha":762},"@":{"x_min":72,"x_max":1318,"ha":1389,"o":"m 870 579 l 909 657 l 998 657 l 899 265 q 895 244 897 254 q 894 225 894 234 q 911 178 894 194 q 962 161 929 161 q 1031 179 994 161 q 1103 231 1068 197 q 1188 357 1158 282 q 1219 516 1219 432 q 1089 801 1219 692 q 751 911 960 911 q 584 892 661 911 q 441 833 508 873 q 241 630 312 756 q 170 352 170 504 q 211 143 170 232 q 342 -12 253 54 q 502 -92 409 -64 q 697 -121 594 -121 q 919 -87 811 -121 q 1118 7 1027 -54 l 1155 -47 q 942 -161 1054 -123 q 705 -199 829 -199 q 469 -167 576 -199 q 279 -72 362 -135 q 123 113 175 7 q 72 353 72 219 q 107 566 72 465 q 209 748 142 666 q 447 931 308 869 q 756 994 587 994 q 966 963 867 994 q 1138 877 1066 932 q 1272 720 1226 809 q 1318 528 1318 631 q 1274 314 1318 409 q 1149 154 1231 219 q 1048 98 1103 118 q 935 78 993 78 q 834 105 868 78 q 800 184 800 132 l 800 197 q 712 108 762 137 q 596 80 662 80 q 437 137 492 80 q 383 305 383 195 q 476 573 383 465 q 706 681 570 681 q 805 655 764 681 q 870 579 846 630 m 807 321 l 847 481 q 800 574 835 541 q 712 607 765 607 q 555 518 619 607 q 492 301 492 430 q 524 191 492 230 q 618 153 557 153 q 736 199 683 153 q 807 321 788 246 "},"¾":{"x_min":20,"x_max":1165,"ha":1193,"o":"m 807 196 l 1000 196 l 1000 437 l 807 196 m 1000 0 l 1000 134 l 734 134 l 734 203 l 1000 528 l 1079 528 l 1079 196 l 1165 196 l 1165 134 l 1079 134 l 1079 0 l 1000 0 m 249 -28 l 858 971 l 943 971 l 333 -28 l 249 -28 m 20 584 l 100 584 q 135 496 101 527 q 230 465 169 465 q 324 493 290 465 q 358 572 358 522 q 325 642 358 618 q 230 667 292 667 q 204 666 213 667 q 186 665 194 666 l 186 728 q 198 727 192 727 q 212 727 204 727 q 308 746 278 727 q 338 810 338 766 q 309 873 338 851 q 229 896 281 896 q 142 866 171 896 q 113 780 113 837 l 35 780 l 35 782 q 86 910 35 863 q 225 958 137 958 q 369 920 318 958 q 421 814 421 882 q 401 746 421 774 q 344 704 382 719 q 418 655 393 688 q 443 572 443 622 q 383 446 443 493 q 225 400 324 400 q 75 449 131 400 q 20 580 20 498 l 20 584 "},"i":{"x_min":93,"x_max":215,"ha":309,"o":"m 93 860 l 93 999 l 215 999 l 215 860 l 93 860 m 93 0 l 93 726 l 215 726 l 215 0 l 93 0 "},"≤":{"x_min":178,"x_max":981.359375,"ha":1157,"o":"m 981 110 l 981 16 l 178 16 l 178 110 l 981 110 m 980 718 l 344 508 l 980 301 l 980 200 l 178 467 l 178 550 l 980 818 l 980 718 "},"m":{"x_min":93,"x_max":1101,"ha":1192,"o":"m 979 0 l 979 447 q 949 597 979 557 q 845 638 919 638 q 707 583 756 638 q 659 429 659 528 l 659 0 l 535 0 l 535 447 q 505 597 535 557 q 401 638 475 638 q 264 582 314 638 q 215 429 215 527 l 215 0 l 93 0 l 93 726 l 209 726 l 209 624 q 305 715 250 685 q 436 745 361 745 q 552 717 504 745 q 635 631 600 690 q 739 717 682 690 q 868 745 795 745 q 991 719 939 745 q 1071 645 1043 694 q 1094 579 1087 618 q 1101 457 1101 540 l 1101 436 l 1101 0 l 979 0 "},"ž":{"x_min":35,"x_max":641,"ha":668,"o":"m 621 726 l 621 627 l 196 110 l 641 110 l 641 0 l 35 0 l 35 99 l 464 619 l 57 619 l 57 726 l 621 726 m 135 1061 l 217 1061 l 335 906 l 451 1061 l 535 1061 l 401 825 l 268 825 l 135 1061 "},"á":{"x_min":49,"x_max":735,"ha":754,"o":"m 542 96 q 421 7 485 37 q 285 -22 357 -22 q 111 35 173 -22 q 49 196 49 93 q 110 351 49 295 q 297 424 171 407 q 383 433 329 427 q 497 451 476 442 q 525 473 518 459 q 532 530 532 486 q 491 613 532 585 q 368 641 450 641 q 240 607 283 641 q 197 507 197 573 l 82 507 l 82 512 q 159 686 82 622 q 372 750 236 750 q 587 695 518 750 q 656 524 656 640 l 656 161 q 666 100 656 114 q 702 87 676 87 q 716 88 708 87 q 735 91 724 89 l 735 -2 q 696 -11 712 -9 q 664 -14 679 -14 q 572 12 603 -14 q 542 92 542 38 l 542 96 m 531 369 q 363 328 482 343 q 300 320 321 323 q 204 280 233 309 q 175 197 175 252 q 208 114 175 143 q 306 85 242 85 q 467 134 404 85 q 531 261 531 184 l 531 369 m 281 825 l 419 1061 l 556 1061 l 362 825 l 281 825 "},"×":{"x_min":199,"x_max":968,"ha":1157,"o":"m 583 481 l 901 799 l 968 731 l 649 413 l 968 96 l 901 31 l 583 347 l 265 31 l 199 96 l 517 413 l 199 731 l 265 799 l 583 481 "},"İ":{"x_min":110,"x_max":246,"ha":357,"o":"m 110 0 l 110 999 l 246 999 l 246 0 l 110 0 m 114 1122 l 114 1271 l 245 1271 l 245 1122 l 114 1122 "},"K":{"x_min":107,"x_max":914,"ha":886,"o":"m 107 0 l 107 999 l 241 999 l 241 516 l 721 999 l 902 999 l 493 598 l 914 0 l 745 0 l 395 501 l 241 349 l 241 0 l 107 0 "},"7":{"x_min":56,"x_max":717,"ha":762,"o":"m 187 0 q 315 432 217 231 q 583 816 413 634 l 56 816 l 56 943 l 717 943 l 717 827 q 456 443 552 649 q 329 0 359 237 l 187 0 "},"¨":{"x_min":174,"x_max":520,"ha":694,"o":"m 397 864 l 397 1007 l 520 1007 l 520 864 l 397 864 m 174 864 l 174 1007 l 297 1007 l 297 864 l 174 864 "},"Y":{"x_min":-12,"x_max":851,"ha":838,"o":"m 495 0 l 359 0 l 359 400 l -12 999 l 158 999 l 425 526 l 691 999 l 851 999 l 495 409 l 495 0 "},"E":{"x_min":107,"x_max":831,"ha":888,"o":"m 107 0 l 107 999 l 819 999 l 819 875 l 241 875 l 241 577 l 775 577 l 775 460 l 241 460 l 241 125 l 831 125 l 831 0 l 107 0 "},"Ô":{"x_min":64,"x_max":1010,"ha":1074,"o":"m 204 498 q 292 198 204 306 q 538 90 381 90 q 782 198 694 90 q 870 498 870 306 q 782 799 870 691 q 538 907 694 907 q 292 799 381 907 q 204 498 204 691 m 64 498 q 189 885 64 746 q 538 1025 315 1025 q 884 885 759 1025 q 1010 498 1010 746 q 884 111 1010 250 q 538 -28 759 -28 q 189 111 315 -28 q 64 498 64 250 m 338 1086 l 471 1322 l 604 1322 l 738 1086 l 654 1086 l 538 1239 l 420 1086 l 338 1086 "},"Ï":{"x_min":6,"x_max":352,"ha":357,"o":"m 110 0 l 110 999 l 246 999 l 246 0 l 110 0 m 229 1125 l 229 1268 l 352 1268 l 352 1125 l 229 1125 m 6 1125 l 6 1268 l 129 1268 l 129 1125 l 6 1125 "},"‹":{"x_min":54,"x_max":274,"ha":339,"o":"m 274 599 l 274 480 l 128 367 l 274 254 l 274 135 l 54 299 l 54 434 l 274 599 "},"±":{"x_min":172,"x_max":984,"ha":1157,"o":"m 984 116 l 984 20 l 172 20 l 172 116 l 984 116 m 626 809 l 626 578 l 984 578 l 984 484 l 626 484 l 626 253 l 530 253 l 530 484 l 172 484 l 172 578 l 530 578 l 530 809 l 626 809 "},"ì":{"x_min":-23,"x_max":252,"ha":309,"o":"m 93 0 l 93 726 l 215 726 l 215 0 l 93 0 m 252 825 l 170 825 l -23 1061 l 113 1061 l 252 825 "},"|":{"x_min":297,"x_max":399,"ha":694,"o":"m 399 1061 l 399 -328 l 297 -328 l 297 1061 l 399 1061 "},"§":{"x_min":54,"x_max":640,"ha":694,"o":"m 445 294 q 496 343 478 313 q 515 404 515 372 q 490 470 515 441 q 394 539 466 499 l 247 620 q 192 574 210 599 q 175 519 175 549 q 198 453 175 481 q 295 381 221 424 l 445 294 m 101 94 l 219 94 l 219 91 q 252 3 219 34 q 349 -28 286 -28 q 434 -2 402 -28 q 466 67 466 23 q 435 140 466 107 q 313 222 404 172 l 190 290 q 87 375 120 328 q 54 482 54 421 q 84 588 54 539 q 175 677 114 637 q 127 738 143 704 q 112 813 112 771 q 175 966 112 907 q 340 1026 238 1026 q 512 967 449 1026 q 575 808 575 909 l 575 802 l 460 802 q 425 891 457 858 q 340 924 392 924 q 261 898 290 924 q 233 829 233 873 q 255 768 233 795 q 334 711 278 740 l 502 620 q 607 533 575 581 q 640 416 640 485 q 605 305 640 356 q 515 230 570 254 q 567 163 550 200 q 584 81 584 126 q 515 -73 584 -12 q 338 -134 446 -134 q 165 -71 230 -134 q 101 94 101 -9 "},"q":{"x_min":56,"x_max":728,"ha":825,"o":"m 182 373 q 239 159 182 234 q 404 85 297 85 q 559 157 504 85 q 614 364 614 230 q 557 567 614 494 q 400 640 501 640 q 240 568 299 640 q 182 373 182 497 m 609 95 q 514 8 574 38 q 373 -22 454 -22 q 142 83 228 -22 q 56 365 56 188 q 142 645 56 541 q 373 750 228 750 q 508 720 451 750 q 609 627 566 690 l 609 726 l 728 726 l 728 -290 l 609 -290 l 609 95 "},"b":{"x_min":96,"x_max":770,"ha":825,"o":"m 211 368 q 266 160 211 233 q 425 87 322 87 q 583 158 525 87 q 642 353 642 229 q 586 565 642 490 q 426 640 530 640 q 264 571 318 640 q 211 368 211 503 m 96 0 l 96 999 l 215 999 l 215 625 q 316 718 257 686 q 450 750 375 750 q 682 644 594 750 q 770 360 770 538 q 683 82 770 186 q 451 -22 597 -22 q 317 5 375 -22 q 215 92 260 33 l 215 0 l 96 0 "},"®":{"x_min":79,"x_max":1079,"ha":1157,"o":"m 571 717 l 484 717 l 484 529 l 574 529 q 684 550 651 529 q 718 619 718 571 q 683 693 718 670 q 571 717 648 717 m 590 786 q 768 746 709 786 q 828 630 828 707 q 794 530 828 570 q 698 478 760 490 l 825 220 l 705 220 l 589 461 l 484 461 l 484 220 l 377 220 l 377 786 l 590 786 m 1014 488 q 982 658 1014 579 q 890 798 950 737 q 748 894 827 861 q 579 927 669 927 q 413 895 491 927 q 276 803 335 863 q 178 658 212 739 q 144 492 144 577 q 176 329 144 407 q 271 188 209 250 q 412 92 332 126 q 575 59 491 59 q 743 91 663 59 q 887 186 822 124 q 981 323 948 246 q 1014 488 1014 401 m 577 993 q 771 955 680 993 q 934 844 863 917 q 1041 682 1004 773 q 1079 493 1079 592 q 1041 300 1079 390 q 933 141 1004 210 q 767 31 859 69 q 577 -7 675 -7 q 387 31 477 -7 q 224 142 296 69 q 116 304 153 214 q 79 493 79 394 q 118 684 79 592 q 230 851 157 777 q 387 957 298 921 q 577 993 475 993 "},"L":{"x_min":107,"x_max":742,"ha":743,"o":"m 107 0 l 107 999 l 244 999 l 244 126 l 742 126 l 742 0 l 107 0 "}," ":{"x_min":0,"x_max":0,"ha":380},"∑":{"x_min":17,"x_max":908,"ha":936,"o":"m 37 999 l 890 999 l 890 868 l 240 868 l 695 381 l 225 -137 l 908 -137 l 908 -267 l 17 -267 l 17 -165 l 508 377 l 37 878 l 37 999 "},"À":{"x_min":-4,"x_max":889,"ha":885,"o":"m 284 415 l 596 415 l 441 855 l 284 415 m -4 0 l 366 999 l 516 999 l 889 0 l 741 0 l 636 298 l 242 298 l 136 0 l -4 0 m 541 1086 l 459 1086 l 266 1322 l 402 1322 l 541 1086 "},"+":{"x_min":172,"x_max":984,"ha":1157,"o":"m 626 828 l 626 461 l 984 461 l 984 367 l 626 367 l 626 0 l 530 0 l 530 367 l 172 367 l 172 461 l 530 461 l 530 828 l 626 828 "},"½":{"x_min":82,"x_max":1156,"ha":1192,"o":"m 741 0 l 741 4 q 783 136 741 83 q 931 242 825 190 l 983 267 q 1051 318 1029 289 q 1074 382 1074 346 q 1041 452 1074 426 q 953 479 1008 479 q 864 445 896 479 q 832 353 832 412 l 832 347 l 753 347 l 753 356 q 807 493 753 443 q 955 543 862 543 q 1101 499 1046 543 q 1156 382 1156 455 q 1124 285 1156 327 q 1024 211 1092 243 l 973 188 q 869 127 902 155 q 827 66 837 99 l 1156 66 l 1156 0 l 741 0 m 249 -28 l 858 971 l 943 971 l 333 -28 l 249 -28 m 224 415 l 224 800 l 82 800 l 82 854 q 198 880 159 855 q 244 958 237 905 l 305 958 l 305 415 l 224 415 "},"Ë":{"x_min":107,"x_max":831,"ha":888,"o":"m 107 0 l 107 999 l 819 999 l 819 875 l 241 875 l 241 577 l 775 577 l 775 460 l 241 460 l 241 125 l 831 125 l 831 0 l 107 0 m 507 1125 l 507 1268 l 630 1268 l 630 1125 l 507 1125 m 284 1125 l 284 1268 l 407 1268 l 407 1125 l 284 1125 "},"'":{"x_min":61,"x_max":155,"ha":215,"o":"m 155 974 l 155 598 l 61 598 l 61 974 l 155 974 "},"Š":{"x_min":61,"x_max":836,"ha":897,"o":"m 61 329 l 192 329 q 264 156 194 220 q 451 92 334 92 q 634 140 567 92 q 701 273 701 189 q 450 447 701 388 q 427 453 435 451 q 158 560 223 501 q 93 729 93 619 q 190 943 93 862 q 450 1025 288 1025 q 710 939 615 1025 q 807 706 805 854 l 677 705 q 609 859 670 805 q 441 913 547 913 q 282 869 342 913 q 223 752 223 825 q 469 579 223 636 q 525 566 505 571 l 539 562 q 753 479 701 524 q 814 397 793 445 q 836 289 836 348 q 732 59 836 144 q 452 -26 629 -26 q 169 65 271 -26 q 61 329 68 157 m 249 1322 l 331 1322 l 449 1167 l 565 1322 l 649 1322 l 515 1086 l 382 1086 l 249 1322 "},"˛":{"x_min":239,"x_max":451,"ha":694,"o":"m 421 0 q 350 -79 372 -42 q 328 -150 328 -115 q 342 -191 328 -179 q 393 -203 357 -203 l 451 -203 l 451 -300 l 392 -300 q 277 -271 315 -300 q 239 -185 239 -242 q 268 -97 239 -141 q 366 0 298 -53 l 421 0 "},"ð":{"x_min":58,"x_max":754,"ha":810,"o":"m 499 692 q 434 760 469 729 q 355 819 398 792 l 172 723 l 145 779 l 295 858 q 220 897 260 878 q 132 935 180 916 l 161 1019 q 289 970 227 998 q 409 907 351 943 l 591 1004 l 617 947 l 467 869 q 682 631 610 761 q 754 351 754 501 q 662 76 754 174 q 406 -22 570 -22 q 149 76 241 -22 q 58 351 58 174 q 148 614 58 515 q 389 713 239 713 q 445 707 418 713 q 499 692 472 702 m 183 354 q 240 155 183 224 q 408 87 298 87 q 572 155 515 87 q 629 354 629 224 q 571 553 629 483 q 408 623 513 623 q 243 551 303 623 q 183 354 183 479 "},"ş":{"x_min":42,"x_max":637,"ha":689,"o":"m 42 236 l 160 236 q 213 124 166 162 q 345 86 259 86 q 471 117 424 86 q 518 201 518 149 q 495 262 518 240 q 403 299 472 283 l 267 335 q 106 409 151 363 q 62 539 62 454 q 134 692 62 635 q 334 749 207 749 q 540 688 463 749 q 617 526 617 627 l 617 524 l 498 524 q 450 613 493 581 q 334 645 407 645 q 222 619 260 645 q 184 543 184 593 q 207 489 184 509 q 297 453 231 468 l 415 425 q 589 349 542 395 q 637 222 637 303 q 562 43 637 107 q 352 -20 487 -20 l 352 -75 l 370 -75 q 477 -102 439 -75 q 515 -181 515 -130 q 474 -271 515 -241 q 352 -301 433 -301 q 275 -294 317 -301 q 187 -275 233 -288 l 187 -212 q 281 -230 238 -224 q 350 -237 325 -237 q 403 -224 384 -237 q 422 -186 422 -211 q 401 -146 422 -159 q 340 -133 381 -133 q 319 -133 328 -133 q 302 -134 310 -133 l 301 -22 l 281 -22 q 113 50 185 -22 q 42 229 42 123 l 42 236 "},"ı":{"x_min":93,"x_max":215,"ha":309,"o":"m 93 0 l 93 726 l 215 726 l 215 0 l 93 0 "},"Ć":{"x_min":64,"x_max":937,"ha":990,"o":"m 805 371 l 937 371 q 812 80 928 188 q 514 -28 697 -28 q 183 115 303 -28 q 64 514 64 259 q 189 886 64 748 q 527 1025 314 1025 q 804 937 696 1025 q 930 699 913 850 l 797 699 q 706 850 778 797 q 522 904 635 904 q 286 797 370 904 q 203 497 203 691 q 290 203 203 314 q 520 93 377 93 q 721 169 643 93 q 805 371 799 245 m 420 1086 l 558 1322 l 695 1322 l 501 1086 l 420 1086 "},"ä":{"x_min":49,"x_max":735,"ha":754,"o":"m 542 96 q 421 7 485 37 q 285 -22 357 -22 q 111 35 173 -22 q 49 196 49 93 q 110 351 49 295 q 297 424 171 407 q 383 433 329 427 q 497 451 476 442 q 525 473 518 459 q 532 530 532 486 q 491 613 532 585 q 368 641 450 641 q 240 607 283 641 q 197 507 197 573 l 82 507 l 82 512 q 159 686 82 622 q 372 750 236 750 q 587 695 518 750 q 656 524 656 640 l 656 161 q 666 100 656 114 q 702 87 676 87 q 716 88 708 87 q 735 91 724 89 l 735 -2 q 696 -11 712 -9 q 664 -14 679 -14 q 572 12 603 -14 q 542 92 542 38 l 542 96 m 531 369 q 363 328 482 343 q 300 320 321 323 q 204 280 233 309 q 175 197 175 252 q 208 114 175 143 q 306 85 242 85 q 467 134 404 85 q 531 261 531 184 l 531 369 m 428 864 l 428 1007 l 551 1007 l 551 864 l 428 864 m 205 864 l 205 1007 l 328 1007 l 328 864 l 205 864 "},"¹":{"x_min":86,"x_max":318,"ha":503,"o":"m 235 378 l 235 789 l 86 789 l 86 849 q 207 877 166 850 q 255 960 248 903 l 318 960 l 318 378 l 235 378 "},"£":{"x_min":36.171875,"x_max":731,"ha":762,"o":"m 109 -22 l 43 76 q 169 208 128 145 q 211 331 211 271 q 203 382 211 355 q 181 437 195 409 l 36 437 l 36 507 l 143 507 q 88 618 105 569 q 72 713 72 668 q 163 912 72 831 q 390 994 254 994 q 619 914 534 994 q 705 699 705 834 q 704 686 705 695 q 704 673 704 677 l 581 673 l 581 684 q 531 829 581 778 q 390 880 481 880 q 256 831 309 880 q 204 709 204 783 q 269 528 204 656 q 280 507 276 514 l 498 507 l 498 437 l 312 437 q 322 390 319 411 q 326 355 326 369 q 291 235 326 296 q 187 107 256 173 q 258 133 219 124 q 345 142 297 142 q 464 117 393 142 q 560 93 535 93 q 615 103 587 93 q 674 136 643 114 l 731 42 q 646 -11 687 5 q 558 -29 604 -29 q 502 -23 529 -29 q 440 -4 474 -17 l 376 21 q 331 33 353 29 q 288 38 309 38 q 194 23 239 38 q 109 -22 150 8 "},"W":{"x_min":7,"x_max":1250,"ha":1255,"o":"m 267 0 l 7 999 l 139 999 l 343 200 l 554 999 l 695 999 l 914 205 l 1121 999 l 1250 999 l 985 0 l 851 0 l 624 823 l 406 0 l 267 0 "},"Ğ":{"x_min":64,"x_max":973,"ha":1061,"o":"m 855 132 q 710 12 794 52 q 518 -28 626 -28 q 189 116 315 -28 q 64 497 64 261 q 194 883 64 742 q 547 1025 324 1025 q 826 938 718 1025 q 956 697 934 851 l 824 697 q 733 853 805 798 q 547 908 661 908 q 293 801 383 908 q 204 502 204 695 q 292 202 204 310 q 538 95 381 95 q 763 181 679 95 q 848 413 848 267 l 848 426 l 534 426 l 534 539 l 973 539 l 973 0 l 884 0 l 855 132 m 333 1298 l 406 1298 q 439 1226 409 1249 q 530 1204 469 1204 q 621 1226 591 1204 q 654 1298 651 1249 l 728 1298 q 673 1154 720 1200 q 530 1109 625 1109 q 387 1154 435 1109 q 333 1298 340 1200 "},"v":{"x_min":1,"x_max":663,"ha":668,"o":"m 268 0 l 1 726 l 131 726 l 334 144 l 532 726 l 663 726 l 398 0 l 268 0 "},">":{"x_min":179,"x_max":978,"ha":1157,"o":"m 978 458 l 978 371 l 179 43 l 179 147 l 837 413 l 179 682 l 179 786 l 978 458 "},"û":{"x_min":90,"x_max":697,"ha":790,"o":"m 213 726 l 213 281 q 246 132 213 174 q 360 91 280 91 q 520 152 466 91 q 575 335 575 214 l 575 726 l 697 726 l 697 0 l 580 0 l 580 109 q 482 13 542 45 q 340 -18 421 -18 q 208 7 264 -18 q 121 81 151 33 q 97 143 104 107 q 90 256 90 178 l 90 290 l 90 726 l 213 726 m 196 825 l 329 1061 l 462 1061 l 596 825 l 512 825 l 396 978 l 278 825 l 196 825 "},"Ð":{"x_min":0,"x_max":924,"ha":989,"o":"m 483 884 l 249 884 l 249 574 l 516 574 l 516 488 l 249 488 l 249 122 l 483 122 q 709 219 632 122 q 786 507 786 316 q 708 786 786 689 q 483 884 630 884 m 113 0 l 113 488 l 0 488 l 0 574 l 113 574 l 113 999 l 494 999 q 813 874 703 999 q 924 514 924 749 q 809 134 924 269 q 489 0 695 0 l 113 0 "},"r":{"x_min":93,"x_max":444,"ha":461,"o":"m 93 0 l 93 726 l 210 726 l 210 595 q 289 705 240 669 q 412 742 339 742 q 431 741 425 742 q 444 739 437 741 l 444 610 q 433 611 439 611 q 414 612 427 612 q 266 558 317 612 q 215 403 215 505 l 215 0 l 93 0 "},"Č":{"x_min":64,"x_max":937,"ha":990,"o":"m 805 371 l 937 371 q 812 80 928 188 q 514 -28 697 -28 q 183 115 303 -28 q 64 514 64 259 q 189 886 64 748 q 527 1025 314 1025 q 804 937 696 1025 q 930 699 913 850 l 797 699 q 706 850 778 797 q 522 904 635 904 q 286 797 370 904 q 203 497 203 691 q 290 203 203 314 q 520 93 377 93 q 721 169 643 93 q 805 371 799 245 m 317 1322 l 399 1322 l 517 1167 l 633 1322 l 717 1322 l 583 1086 l 450 1086 l 317 1322 "},"x":{"x_min":0,"x_max":665,"ha":665,"o":"m 0 0 l 252 373 l 12 726 l 154 726 l 333 465 l 508 726 l 649 726 l 405 374 l 665 0 l 517 0 l 327 280 l 142 0 l 0 0 "},"è":{"x_min":58,"x_max":712,"ha":760,"o":"m 185 429 l 584 429 q 532 585 583 530 q 387 641 481 641 q 245 586 297 641 q 185 429 193 532 m 581 234 l 702 234 q 597 45 682 114 q 384 -24 512 -24 q 145 77 232 -24 q 58 355 58 179 q 144 645 58 541 q 383 750 231 750 q 626 653 540 750 q 712 381 712 557 q 711 348 712 358 q 710 327 711 337 l 185 327 q 242 149 187 212 q 395 87 297 87 q 518 125 469 87 q 581 234 566 163 m 486 825 l 404 825 l 211 1061 l 347 1061 l 486 825 "},"Ø":{"x_min":57.1875,"x_max":1012.71875,"ha":1074,"o":"m 298 190 q 405 115 345 140 q 538 90 465 90 q 782 198 694 90 q 870 498 870 306 q 855 641 870 575 q 811 758 840 706 l 298 190 m 775 809 q 673 883 730 860 q 538 907 616 907 q 291 797 379 907 q 204 491 204 688 q 218 351 204 413 q 262 239 232 290 l 775 809 m 166 140 q 89 295 115 206 q 64 498 64 384 q 189 885 64 746 q 538 1025 315 1025 q 715 996 635 1025 q 861 909 796 968 l 964 1025 l 1012 979 l 907 860 q 984 703 958 794 q 1010 498 1010 613 q 884 111 1010 250 q 537 -28 759 -28 q 356 1 436 -28 q 210 90 275 30 l 107 -28 l 57 16 l 166 140 "},"÷":{"x_min":172,"x_max":986,"ha":1157,"o":"m 579 249 q 638 223 613 249 q 664 164 664 198 q 639 103 664 128 q 579 79 614 79 q 518 103 542 79 q 494 164 494 127 q 519 223 494 198 q 579 249 544 249 m 986 461 l 986 367 l 172 367 l 172 461 l 986 461 m 579 749 q 638 723 613 749 q 664 663 664 698 q 639 603 664 628 q 579 579 614 579 q 518 603 543 579 q 494 663 494 628 q 519 723 494 698 q 579 749 544 749 "},"h":{"x_min":93,"x_max":700,"ha":790,"o":"m 577 0 l 577 446 q 544 595 577 554 q 430 636 511 636 q 273 580 331 636 q 215 429 215 524 l 215 0 l 93 0 l 93 999 l 215 999 l 215 623 q 306 714 248 683 q 442 745 364 745 q 581 720 525 745 q 668 645 637 695 q 692 583 685 619 q 700 470 700 548 l 700 435 l 700 0 l 577 0 "},".":{"x_min":121,"x_max":260,"ha":380,"o":"m 121 0 l 121 151 l 260 151 l 260 0 l 121 0 "},"f":{"x_min":0,"x_max":373,"ha":367,"o":"m 119 0 l 119 629 l 0 629 l 0 726 l 119 726 l 119 833 q 159 968 119 923 q 282 1014 200 1014 q 315 1011 295 1014 q 373 1004 335 1009 l 373 894 q 340 899 353 897 q 318 901 326 901 q 258 877 275 901 q 242 787 242 853 l 242 726 l 373 726 l 373 629 l 242 629 l 242 0 l 119 0 "},"“":{"x_min":107,"x_max":466,"ha":574,"o":"m 241 827 l 241 688 l 107 688 l 107 847 q 141 966 107 919 q 241 1025 176 1012 l 241 962 q 191 930 209 958 q 173 856 173 901 l 173 827 l 241 827 m 466 827 l 466 688 l 330 688 l 330 847 q 365 965 330 919 q 466 1025 400 1011 l 466 962 q 417 930 435 958 q 399 856 399 901 l 399 827 l 466 827 "},"A":{"x_min":-4,"x_max":889,"ha":885,"o":"m 284 415 l 596 415 l 441 855 l 284 415 m -4 0 l 366 999 l 516 999 l 889 0 l 741 0 l 636 298 l 242 298 l 136 0 l -4 0 "},"O":{"x_min":64,"x_max":1010,"ha":1074,"o":"m 204 498 q 292 198 204 306 q 538 90 381 90 q 782 198 694 90 q 870 498 870 306 q 782 799 870 691 q 538 907 694 907 q 292 799 381 907 q 204 498 204 691 m 64 498 q 189 885 64 746 q 538 1025 315 1025 q 884 885 759 1025 q 1010 498 1010 746 q 884 111 1010 250 q 538 -28 759 -28 q 189 111 315 -28 q 64 498 64 250 "},"π":{"x_min":-21,"x_max":810,"ha":818,"o":"m 786 619 l 662 619 l 591 288 q 576 207 581 238 q 571 161 571 176 q 586 105 571 122 q 640 89 602 89 q 667 90 651 89 q 708 95 683 92 l 687 0 q 648 -8 667 -5 q 612 -11 630 -11 q 491 23 532 -11 q 450 126 450 58 q 457 206 450 157 q 487 364 464 254 l 541 619 l 320 619 l 189 0 l 66 0 l 198 619 l 170 619 q 113 597 134 619 q 87 528 93 575 l -21 528 q 46 683 -2 641 q 206 726 94 726 l 810 726 l 786 619 "},"‘":{"x_min":107,"x_max":241,"ha":349,"o":"m 241 827 l 241 688 l 107 688 l 107 847 q 141 966 107 919 q 241 1025 176 1012 l 241 962 q 191 930 209 958 q 173 856 173 901 l 173 827 l 241 827 "},"3":{"x_min":32,"x_max":704,"ha":762,"o":"m 32 302 l 158 302 q 214 144 160 199 q 365 89 267 89 q 515 139 460 89 q 570 279 570 190 q 516 405 570 360 q 365 450 462 450 q 299 447 345 450 l 295 446 l 295 556 q 313 555 304 555 q 337 555 322 555 q 487 590 441 555 q 534 704 534 626 q 489 817 534 778 q 363 857 445 857 q 224 805 271 857 q 177 652 177 753 l 54 652 l 54 658 q 136 886 54 801 q 356 971 218 971 q 586 902 504 971 q 668 711 668 833 q 637 591 668 640 q 547 516 606 542 q 664 427 624 487 q 704 279 704 367 q 609 55 704 139 q 356 -28 515 -28 q 120 59 208 -28 q 32 295 32 147 l 32 302 "},"9":{"x_min":40,"x_max":717,"ha":762,"o":"m 175 647 q 226 498 175 554 q 362 442 277 442 q 511 497 457 442 q 565 649 565 552 q 512 803 565 746 q 368 861 458 861 q 227 802 280 861 q 175 647 175 744 m 49 239 l 177 239 q 225 126 179 167 q 350 85 271 85 q 512 171 456 85 q 578 433 568 257 q 478 354 537 381 q 347 327 419 327 q 124 414 209 327 q 40 646 40 502 q 129 881 40 791 q 366 971 219 971 q 626 853 535 971 q 717 515 717 736 q 621 112 717 253 q 348 -28 525 -28 q 130 44 211 -28 q 49 239 49 116 "},"l":{"x_min":94,"x_max":218,"ha":314,"o":"m 94 0 l 94 999 l 218 999 l 218 0 l 94 0 "},"":{"x_min":0,"x_max":582,"ha":671,"o":"m 119 0 l 119 629 l 0 629 l 0 726 l 119 726 l 119 833 q 160 968 119 922 q 283 1014 201 1014 q 316 1011 296 1014 q 372 1004 336 1009 l 372 894 q 339 899 352 897 q 317 901 326 901 q 258 877 275 901 q 241 787 241 853 l 241 726 l 372 726 l 372 629 l 241 629 l 241 0 l 119 0 m 460 861 l 460 999 l 582 999 l 582 861 l 460 861 m 460 0 l 460 726 l 582 726 l 582 0 l 460 0 "},"4":{"x_min":35,"x_max":720,"ha":762,"o":"m 151 349 l 457 349 l 457 781 l 151 349 m 457 0 l 457 238 l 35 238 l 35 360 l 455 943 l 582 943 l 582 349 l 720 349 l 720 238 l 582 238 l 582 0 l 457 0 "},"Ü":{"x_min":102,"x_max":884,"ha":985,"o":"m 102 379 l 102 999 l 238 999 l 238 377 q 300 170 238 237 q 492 103 362 103 q 684 171 621 103 q 748 377 748 239 l 748 999 l 884 999 l 884 379 q 780 75 884 178 q 476 -28 677 -28 q 195 73 289 -28 q 102 379 102 175 m 543 1125 l 543 1268 l 666 1268 l 666 1125 l 543 1125 m 320 1125 l 320 1268 l 443 1268 l 443 1125 l 320 1125 "},"à":{"x_min":49,"x_max":735,"ha":754,"o":"m 542 96 q 421 7 485 37 q 285 -22 357 -22 q 111 35 173 -22 q 49 196 49 93 q 110 351 49 295 q 297 424 171 407 q 383 433 329 427 q 497 451 476 442 q 525 473 518 459 q 532 530 532 486 q 491 613 532 585 q 368 641 450 641 q 240 607 283 641 q 197 507 197 573 l 82 507 l 82 512 q 159 686 82 622 q 372 750 236 750 q 587 695 518 750 q 656 524 656 640 l 656 161 q 666 100 656 114 q 702 87 676 87 q 716 88 708 87 q 735 91 724 89 l 735 -2 q 696 -11 712 -9 q 664 -14 679 -14 q 572 12 603 -14 q 542 92 542 38 l 542 96 m 531 369 q 363 328 482 343 q 300 320 321 323 q 204 280 233 309 q 175 197 175 252 q 208 114 175 143 q 306 85 242 85 q 467 134 404 85 q 531 261 531 184 l 531 369 m 476 825 l 394 825 l 201 1061 l 337 1061 l 476 825 "},"ó":{"x_min":56,"x_max":752,"ha":807,"o":"m 181 364 q 239 158 181 229 q 404 87 297 87 q 569 158 512 87 q 626 364 626 229 q 569 569 626 498 q 404 641 512 641 q 238 569 296 641 q 181 364 181 498 m 56 364 q 147 648 56 546 q 403 750 238 750 q 660 648 568 750 q 752 364 752 547 q 660 79 752 181 q 404 -22 569 -22 q 147 79 239 -22 q 56 364 56 180 m 307 825 l 445 1061 l 582 1061 l 388 825 l 307 825 "}}}
